<?xml version="1.0" encoding="UTF-8" standalone="no"?>
<svg width="409px" height="502px" viewBox="0 0 409 502" version="1.1" xmlns="http://www.w3.org/2000/svg" xmlns:xlink="http://www.w3.org/1999/xlink">
    <!-- Generator: Sketch 39.1 (31720) - http://www.bohemiancoding.com/sketch -->
    <title>Left Icon BG</title>
    <desc>Created with Sketch.</desc>
    <defs></defs>
    <g id="Sign-up-Page" stroke="none" stroke-width="1" fill="none" fill-rule="evenodd" opacity="0.5">
        <g id="Sign-Up---Blank-State" transform="translate(0.000000, -522.000000)">
            <g id="Left-Icon-BG" transform="translate(-201.000000, 522.000000)">
                <g id="Group" transform="translate(0.000000, 80.375000)">
                    <g transform="translate(261.171685, 0.000000)" id="Shape">
                        <path d="M243.404293,43.0906503 L42.8266524,229.674642"></path>
                        <path d="M42.8351499,272.311691 C31.4230983,272.311691 20.0407877,267.728208 11.6665682,258.659308 C-4.28311228,241.391303 -3.2634204,214.423369 13.9396313,198.40463 L214.517272,11.8163746 C231.728821,-4.19383738 258.6062,-3.16628449 274.55588,14.1017205 C290.514058,31.3697254 289.494366,58.3461865 272.282817,74.3563985 L71.7136736,260.948917 C63.5391437,268.551103 53.1722763,272.311691 42.8351499,272.311691 L42.8351499,272.311691 Z" fill="#FFFFFF" opacity="0.5"></path>
                    </g>
                    <g transform="translate(0.000000, 105.592623)" id="Shape">
                        <path d="M303.998338,124.082018 L42.6937969,43.0588337"></path>
                        <path d="M304.015333,166.731859 C299.85584,166.731859 295.632616,166.113622 291.460376,164.825983 L30.1558356,83.8070617 C7.73536041,76.852959 -4.81959582,52.9847388 2.09731408,30.4766405 C9.02697012,7.98559695 32.8155319,-4.62217853 55.2402557,2.3233968 L316.544797,83.3465816 C338.956774,90.3006843 351.520228,114.173168 344.594821,136.672739 C338.956774,154.972561 322.153102,166.731859 304.015333,166.731859 L304.015333,166.731859 Z" fill="#FFFFFF" opacity="0.5"></path>
                    </g>
                    <g transform="translate(261.171685, 186.603017)" id="Shape">
                        <path d="M42.8266524,43.0716248 L103.56205,310.678801"></path>
                        <path d="M103.519563,353.324378 C84.1284222,353.324378 66.6152142,339.910762 62.1285699,320.14849 L1.40166993,52.5413135 C-3.81150479,29.5812624 10.5151661,6.72354029 33.3902539,1.49197434 C56.2525955,-3.75238273 79.0384602,10.6418851 84.2516349,33.5934088 L144.987032,301.209112 C150.200207,324.169163 135.873536,347.014094 112.998448,352.249924 C109.81616,352.974754 106.63812,353.324378 103.519563,353.324378 L103.519563,353.324378 Z" fill="#FFFFFF" opacity="0.5"></path>
                    </g>
                </g>
                <g id="Group" transform="translate(61.700000, 0.000000)" fill="#FFFFFF">
                    <path d="M243.95973,353.772067 C224.526102,353.772067 206.991651,340.31155 202.551742,320.472531 L142.555621,52.6990705 C137.410426,29.7219647 151.800828,6.91540701 174.69291,1.74779663 C197.580744,-3.41555004 220.315624,11.0213549 225.46082,33.994197 L285.448443,301.780449 C290.602136,324.761818 276.211734,347.559849 253.319651,352.727459 C250.184099,353.435234 247.044298,353.772067 243.95973,353.772067 L243.95973,353.772067 Z" id="Shape"></path>
                    <path d="M42.9147302,539.788985 C31.4559427,539.788985 20.0353937,535.167129 11.6654229,526.047064 C-4.23327299,508.732159 -3.14560166,481.759961 14.1041859,465.79665 L215.204419,279.775468 C232.458455,263.820684 259.335834,264.92072 275.243027,282.222834 C291.141723,299.542004 290.045554,326.509937 272.795766,342.473249 L71.7040308,528.494431 C63.5379984,536.05398 53.2136181,539.788985 42.9147302,539.788985 L42.9147302,539.788985 Z" id="Shape"></path>
                    <path d="M505.090073,435.528609 C500.892342,435.528609 496.635128,434.89758 492.420402,433.580096 L231.34954,351.827817 C208.954557,344.814023 196.454835,320.907429 203.45247,298.43344 C210.441608,275.959452 234.255662,263.415632 256.659142,270.437954 L517.730004,352.185969 C540.133484,359.204027 552.62471,383.106357 545.635572,405.576082 C539.959287,423.829002 523.181107,435.528609 505.090073,435.528609 L505.090073,435.528609 Z" id="Shape"></path>
                </g>
            </g>
        </g>
    </g>
</svg>