<?xml version="1.0" encoding="UTF-8" standalone="no"?>
<svg width="672px" height="1211px" viewBox="0 0 672 1211" version="1.1" xmlns="http://www.w3.org/2000/svg" xmlns:xlink="http://www.w3.org/1999/xlink">
    <!-- Generator: Sketch 39.1 (31720) - http://www.bohemiancoding.com/sketch -->
    <title>Group 4</title>
    <desc>Created with Sketch.</desc>
    <defs></defs>
    <g id="Sign-up-Page" stroke="none" stroke-width="1" fill="none" fill-rule="evenodd" opacity="0.5">
        <g id="login-copy-2" transform="translate(-768.000000, 0.000000)">
            <g id="Group-4" transform="translate(720.000000, -130.000000)">
                <g id="Group-2" transform="translate(455.627942, 1025.852003) rotate(7.000000) translate(-455.627942, -1025.852003) translate(150.627942, 714.852003)">
                    <g id="Group" transform="translate(-0.000000, 80.375000)">
                        <g transform="translate(261.171685, 0.000000)" id="Shape">
                            <path d="M243.404293,43.0906503 L42.8266524,229.674642"></path>
                            <path d="M42.8351499,272.311691 C31.4230983,272.311691 20.0407877,267.728208 11.6665682,258.659308 C-4.28311228,241.391303 -3.2634204,214.423369 13.9396313,198.40463 L214.517272,11.8163746 C231.728821,-4.19383738 258.6062,-3.16628449 274.55588,14.1017205 C290.514058,31.3697254 289.494366,58.3461865 272.282817,74.3563985 L71.7136736,260.948917 C63.5391437,268.551103 53.1722763,272.311691 42.8351499,272.311691 L42.8351499,272.311691 Z" fill="#FFFFFF" opacity="0.5"></path>
                        </g>
                        <g transform="translate(0.000000, 105.592623)" id="Shape">
                            <path d="M303.998338,124.082018 L42.6937969,43.0588337"></path>
                            <path d="M304.015333,166.731859 C299.85584,166.731859 295.632616,166.113622 291.460376,164.825983 L30.1558356,83.8070617 C7.73536041,76.852959 -4.81959582,52.9847388 2.09731408,30.4766405 C9.02697012,7.98559695 32.8155319,-4.62217853 55.2402557,2.3233968 L316.544797,83.3465816 C338.956774,90.3006843 351.520228,114.173168 344.594821,136.672739 C338.956774,154.972561 322.153102,166.731859 304.015333,166.731859 L304.015333,166.731859 Z" fill="#FFFFFF" opacity="0.5"></path>
                        </g>
                        <g transform="translate(261.171685, 186.603017)" id="Shape">
                            <path d="M42.8266524,43.0716248 L103.56205,310.678801"></path>
                            <path d="M103.519563,353.324378 C84.1284222,353.324378 66.6152142,339.910762 62.1285699,320.14849 L1.40166993,52.5413135 C-3.81150479,29.5812624 10.5151661,6.72354029 33.3902539,1.49197434 C56.2525955,-3.75238273 79.0384602,10.6418851 84.2516349,33.5934088 L144.987032,301.209112 C150.200207,324.169163 135.873536,347.014094 112.998448,352.249924 C109.81616,352.974754 106.63812,353.324378 103.519563,353.324378 L103.519563,353.324378 Z" fill="#FFFFFF" opacity="0.5"></path>
                        </g>
                    </g>
                    <g id="Group" transform="translate(61.700000, 0.000000)" fill="#FFFFFF">
                        <path d="M243.95973,353.772067 C224.526102,353.772067 206.991651,340.31155 202.551742,320.472531 L142.555621,52.6990705 C137.410426,29.7219647 151.800828,6.91540701 174.69291,1.74779663 C197.580744,-3.41555004 220.315624,11.0213549 225.46082,33.994197 L285.448443,301.780449 C290.602136,324.761818 276.211734,347.559849 253.319651,352.727459 C250.184099,353.435234 247.044298,353.772067 243.95973,353.772067 L243.95973,353.772067 Z" id="Shape"></path>
                        <path d="M42.9147302,539.788985 C31.4559427,539.788985 20.0353937,535.167129 11.6654229,526.047064 C-4.23327299,508.732159 -3.14560166,481.759961 14.1041859,465.79665 L215.204419,279.775468 C232.458455,263.820684 259.335834,264.92072 275.243027,282.222834 C291.141723,299.542004 290.045554,326.509937 272.795766,342.473249 L71.7040308,528.494431 C63.5379984,536.05398 53.2136181,539.788985 42.9147302,539.788985 L42.9147302,539.788985 Z" id="Shape"></path>
                        <path d="M505.090073,435.528609 C500.892342,435.528609 496.635128,434.89758 492.420402,433.580096 L231.34954,351.827817 C208.954557,344.814023 196.454835,320.907429 203.45247,298.43344 C210.441608,275.959452 234.255662,263.415632 256.659142,270.437954 L517.730004,352.185969 C540.133484,359.204027 552.62471,383.106357 545.635572,405.576082 C539.959287,423.829002 523.181107,435.528609 505.090073,435.528609 L505.090073,435.528609 Z" id="Shape"></path>
                    </g>
                </g>
                <g id="Group-2-Copy" transform="translate(353.000000, 0.000000)">
                    <g id="Group" transform="translate(0.000000, 68.228296)">
                        <g transform="translate(221.781857, 0.000000)" id="Shape">
                            <path d="M206.694138,36.5785584 L36.3675508,194.964969"></path>
                            <path d="M36.3747666,231.158477 C26.6838769,231.158477 17.0182427,227.267675 9.90702018,219.569316 C-3.63713469,204.910945 -2.77123241,182.018551 11.8372607,168.42065 L182.163848,10.0306203 C196.779556,-3.56004202 219.603297,-2.68777848 233.147452,11.9705923 C246.698823,26.6289631 245.832921,49.5285956 231.217212,63.1192579 L60.8978408,221.512907 C53.9561909,227.96621 45.152851,231.158477 36.3747666,231.158477 L36.3747666,231.158477 Z" fill="#FFFFFF" opacity="0.5"></path>
                        </g>
                        <g transform="translate(0.000000, 89.634896)" id="Shape">
                            <path d="M258.149408,105.330074 L36.2547325,36.5515502"></path>
                            <path d="M258.16384,141.53444 C254.63168,141.53444 251.045401,141.009634 247.502418,139.91659 L25.6077423,71.1416858 C6.56871589,65.2385247 -4.09270596,44.9773988 1.78099785,25.8708459 C7.66552545,6.7787704 27.8663041,-3.92364994 46.9089385,1.97227252 L268.803614,70.7507959 C287.835425,76.6539571 298.504062,96.9187023 292.623143,116.018017 C287.835425,131.55227 273.566077,141.53444 258.16384,141.53444 L258.16384,141.53444 Z" fill="#FFFFFF" opacity="0.5"></path>
                        </g>
                        <g transform="translate(221.781857, 158.402561)" id="Shape">
                            <path d="M36.3675508,36.5624082 L87.9428554,263.727342"></path>
                            <path d="M87.9067762,299.928089 C71.4402011,299.928089 56.5683294,288.541612 52.7583594,271.765921 L1.19027053,44.6009864 C-3.23665488,25.1107822 8.92927218,5.70744256 28.3543467,1.26649912 C47.7685975,-3.18530238 67.1179055,9.03362595 71.544831,28.5165914 L123.120136,255.688764 C127.547061,275.178968 115.381134,294.57145 95.9560595,299.016013 C93.2537228,299.631302 90.554994,299.928089 87.9067762,299.928089 L87.9067762,299.928089 Z" fill="#FFFFFF" opacity="0.5"></path>
                        </g>
                    </g>
                    <g id="Group" transform="translate(52.394426, 0.000000)" fill="#FFFFFF">
                        <path d="M207.165803,300.308121 C190.663149,300.308121 175.773238,288.88183 172.002955,272.040991 L121.055429,44.7349023 C116.686231,25.2302208 128.906277,5.87031335 148.345783,1.48366016 C167.781681,-2.89937366 187.087694,9.35574817 191.456893,28.8568103 L242.397202,256.173757 C246.773617,275.682058 234.553571,295.034727 215.114065,299.42138 C212.451415,300.022192 209.785158,300.308121 207.165803,300.308121 L207.165803,300.308121 Z" id="Shape"></path>
                        <path d="M36.4423446,458.213158 C26.7117677,458.213158 17.0136622,454.289782 9.9060476,446.54799 C-3.59481215,431.849807 -2.67118305,408.953794 11.9769972,395.402944 L182.747359,237.494288 C197.399147,223.950677 220.222888,224.884469 233.730964,239.571795 C247.231824,254.273598 246.300979,277.165992 231.652798,290.716841 L60.8896524,448.625498 C53.9552183,455.042607 45.1879577,458.213158 36.4423446,458.213158 L36.4423446,458.213158 Z" id="Shape"></path>
                        <path d="M428.912554,369.709173 C425.347923,369.709173 421.732781,369.173509 418.153718,368.055129 L196.457478,298.657697 C177.4401,292.703865 166.825581,272.410165 172.767835,253.332567 C178.702874,234.254969 198.9253,223.606839 217.949895,229.567909 L439.646134,298.961722 C458.670729,304.919174 469.278032,325.209255 463.342994,344.283233 C458.522804,359.777674 444.275104,369.709173 428.912554,369.709173 L428.912554,369.709173 Z" id="Shape"></path>
                    </g>
                </g>
                <g id="Group-2-Copy-2" transform="translate(235.446100, 558.103832) rotate(-22.000000) translate(-235.446100, -558.103832) translate(55.446100, 375.103832)">
                    <g id="Group" transform="translate(0.000000, 47.294614)">
                        <g transform="translate(153.705959, -0.000000)" id="Shape">
                            <path d="M143.249412,25.3555917 L25.2045381,135.146172"></path>
                            <path d="M25.209539,160.234854 C18.493266,160.234854 11.7944964,157.53782 6.86606225,152.201458 C-2.5207169,142.040542 -1.92060315,126.17195 8.2038158,116.746133 L126.24869,6.95304359 C136.37811,-2.4677564 152.196108,-1.86311917 161.582887,8.29779694 C170.974667,18.458713 170.374553,34.332322 160.245133,43.753122 L42.2052603,153.54872 C37.3943485,158.022032 31.2931921,160.234854 25.209539,160.234854 L25.209539,160.234854 Z" fill="#FFFFFF" opacity="0.5"></path>
                        </g>
                        <g transform="translate(-0.000000, 62.133280)" id="Shape">
                            <path d="M178.910497,73.0128919 L25.1263493,25.33687"></path>
                            <path d="M178.920499,98.1091003 C176.472535,98.1091003 173.987064,97.7453144 171.531599,96.9876362 L17.7474508,49.3141231 C4.55244982,45.2221591 -2.83645066,31.1775151 1.23432091,17.9332 C5.31259389,4.69892039 19.3127474,-2.7198028 32.5102489,1.36714345 L186.294397,49.0431654 C199.484397,53.1351294 206.878298,67.1822823 202.802526,80.4215796 C199.484397,91.1896418 189.595022,98.1091003 178.920499,98.1091003 L178.920499,98.1091003 Z" fill="#FFFFFF" opacity="0.5"></path>
                        </g>
                        <g transform="translate(153.705959, 109.801775)" id="Shape">
                            <path d="M25.2045381,25.3443966 L60.9488129,182.810999"></path>
                            <path d="M60.9238082,207.904698 C49.5116452,207.904698 39.2046916,200.011799 36.5641911,188.383195 L0.824917224,30.9165928 C-2.24316429,17.4063377 6.18843381,3.95629541 19.6509855,0.87791416 C33.1060357,-2.20799369 46.5160774,6.26194526 49.5841589,19.7671826 L85.3284338,177.238802 C88.3965153,190.749058 79.9649172,204.191573 66.5023655,207.272463 C64.6295106,207.698971 62.7591561,207.904698 60.9238082,207.904698 L60.9238082,207.904698 Z" fill="#FFFFFF" opacity="0.5"></path>
                        </g>
                    </g>
                    <g id="Group" transform="translate(36.311967, -0.000000)" fill="#FFFFFF">
                        <path d="M143.5763,208.168129 C132.139132,208.168129 121.819676,200.247632 119.206681,188.573869 L83.8974886,31.0094209 C80.8694147,17.4891303 89.3385199,4.06919448 102.811073,1.02844625 C116.281127,-2.00979311 129.661163,6.48523453 132.689236,20.0030163 L167.993428,177.574991 C171.026503,191.09779 162.557398,204.512708 149.084844,207.553457 C147.239494,207.969929 145.391644,208.168129 143.5763,208.168129 L143.5763,208.168129 Z" id="Shape"></path>
                        <path d="M25.256374,317.62503 C18.5125958,317.62503 11.7913219,314.905417 6.8653882,309.538948 C-2.49138525,299.350434 -1.85126393,283.479334 8.30066024,274.086132 L126.653092,164.626722 C136.807517,155.238537 152.625515,155.885825 161.98729,166.066812 C171.344063,176.257835 170.698941,192.126426 160.547017,201.519629 L42.1995853,310.979038 C37.3936744,315.427262 31.3175228,317.62503 25.256374,317.62503 L25.256374,317.62503 Z" id="Shape"></path>
                        <path d="M297.257928,256.275677 C294.78746,256.275677 292.281985,255.904364 289.801515,255.129124 L136.154893,207.024085 C122.974895,202.896997 115.618501,188.829773 119.736782,175.605529 C123.850061,162.381285 137.865218,155.000195 151.050217,159.132301 L304.696838,207.23483 C317.881837,211.364427 325.233231,225.429142 321.119951,238.650878 C317.779318,249.391342 307.904946,256.275677 297.257928,256.275677 L297.257928,256.275677 Z" id="Shape"></path>
                    </g>
                </g>
            </g>
        </g>
    </g>
</svg>