<?xml version="1.0" encoding="utf-8"?>
<!-- Generator: Adobe Illustrator 16.0.4, SVG Export Plug-In . SVG Version: 6.00 Build 0)  -->
<!DOCTYPE svg PUBLIC "-//W3C//DTD SVG 1.1//EN" "http://www.w3.org/Graphics/SVG/1.1/DTD/svg11.dtd">
<svg version="1.1" id="Layer_1" xmlns="http://www.w3.org/2000/svg" xmlns:xlink="http://www.w3.org/1999/xlink" x="0px" y="0px"
	 width="611.625px" height="149.913px" viewBox="43.282 44.633 611.625 149.913"
	 enable-background="new 43.282 44.633 611.625 149.913" xml:space="preserve">
<g id="Layer_1_1_">
	<g>
		<g>
			<g>
				<line fill="none" x1="161.995" y1="73.81" x2="114.786" y2="117.571"/>
				<path opacity="0.5" fill="#FFFFFF" enable-background="new    " d="M114.788,127.571c-2.686,0-5.365-1.075-7.336-3.202
					c-3.754-4.05-3.514-10.375,0.535-14.132l47.209-43.762c4.051-3.755,10.377-3.514,14.131,0.536
					c3.756,4.05,3.516,10.377-0.535,14.132l-47.207,43.763C119.661,126.689,117.221,127.571,114.788,127.571z"/>
			</g>
			<g>
				<line fill="none" x1="114.786" y1="117.571" x2="53.284" y2="98.568"/>
				<path opacity="0.5" fill="#FFFFFF" enable-background="new    " d="M114.79,127.574c-0.979,0-1.973-0.145-2.955-0.447
					l-61.502-19.002c-5.277-1.631-8.232-7.229-6.604-12.508c1.631-5.275,7.23-8.232,12.508-6.603l61.502,19.003
					c5.275,1.631,8.232,7.23,6.602,12.507C123.014,124.816,119.059,127.574,114.79,127.574z"/>
			</g>
			<g>
				<line fill="none" x1="114.786" y1="117.571" x2="129.081" y2="180.335"/>
				<path opacity="0.5" fill="#FFFFFF" enable-background="new    " d="M129.071,190.337c-4.564,0-8.686-3.146-9.742-7.781
					l-14.293-62.764c-1.227-5.385,2.145-10.746,7.529-11.973c5.381-1.23,10.744,2.146,11.971,7.529l14.295,62.766
					c1.227,5.385-2.145,10.743-7.529,11.971C130.553,190.255,129.805,190.337,129.071,190.337z"/>
			</g>
		</g>
		<g>
			<g>
				<path fill="#FFFFFF" d="M114.655,127.442c-4.574,0-8.701-3.157-9.746-7.81L90.788,56.829c-1.211-5.389,2.176-10.738,7.564-11.95
					c5.387-1.211,10.738,2.175,11.949,7.563l14.119,62.806c1.213,5.39-2.174,10.737-7.562,11.949
					C116.12,127.363,115.381,127.442,114.655,127.442z"/>
			</g>
			<g>
				<path fill="#FFFFFF" d="M67.336,171.07c-2.697,0-5.385-1.084-7.355-3.223c-3.742-4.061-3.486-10.387,0.574-14.131l47.332-43.629
					c4.061-3.742,10.387-3.484,14.131,0.574c3.742,4.062,3.484,10.387-0.576,14.131l-47.33,43.629
					C72.19,170.194,69.76,171.07,67.336,171.07z"/>
			</g>
			<g>
				<path fill="#FFFFFF" d="M176.116,146.617c-0.988,0-1.99-0.148-2.982-0.457l-61.447-19.174
					c-5.271-1.645-8.213-7.252-6.566-12.523c1.645-5.271,7.25-8.213,12.523-6.566l61.447,19.173
					c5.273,1.646,8.213,7.252,6.568,12.522C184.323,143.873,180.374,146.617,176.116,146.617z"/>
			</g>
		</g>
		<path fill="#FFFFFF" enable-background="new    " d="M222.495,151.975l1.68-2.521c2.1-2.94,4.48-3.223,7.98-1.399
			c3.359,1.819,8.68,4.899,15.959,4.899c6.16,0,9.94-2.803,9.94-7.281c0-11.618-35.42-7.278-35.42-31.778
			c0-14,12.319-21.42,27.3-21.42c9.52,0,16.1,3.08,19.88,5.181c3.22,1.68,3.64,4.619,2.101,7.84l-1.4,2.521
			c-1.68,3.359-4.34,3.779-7.84,2.238c-3.08-1.398-7.7-3.5-13.58-3.5c-6.16,0-9.66,2.521-9.66,7c0,11.761,35.42,7.142,35.42,31.5
			c0,12.601-10.64,21.979-27.16,21.979c-11.479,0-19.459-4.34-23.799-7.278C220.674,158.134,220.395,155.055,222.495,151.975z"/>
		<path fill="#FFFFFF" enable-background="new    " d="M311.164,150.294c-4.9-0.562-11.48-2.66-11.48-13.301V108h10.39
			c3.64,0,5.851-1.687,5.851-5.604v-2.38c0-3.78-2.163-6.016-5.94-6.016h-10.297V80.574c0-3.779-2.1-5.879-5.881-5.879h-5.6
			c-3.779,0-5.879,2.1-5.879,5.879l-0.421,59.5c0,19.32,15.12,26.18,27.858,26.18c4.9,0,7.279-1.68,7.279-5.879v-4.34
			C317.042,152.115,315.503,150.714,311.164,150.294z"/>
		<path fill="#FFFFFF" enable-background="new    " d="M361.664,121.455h2.938v-1.681c0-9.38-6.02-12.601-13.299-12.601
			c-6.021,0-11.479,2.24-14.84,4.061c-3.5,1.54-6.16,0.98-7.84-2.38l-1.4-2.66c-1.68-3.22-1.12-6.021,2.24-7.84
			c4.619-2.38,12.74-5.88,23.379-5.88c18.48,0,29.541,10.359,29.541,28.42v38.779c0,3.92-1.961,5.881-5.881,5.881h-4.76
			c-3.779,0-5.74-1.961-5.74-5.881v-2.801c0-1.959,0.281,0.926,0.281,0.926h-0.281c0,0-6.719,9.436-22.399,9.436
			c-13.021,0-23.657-8.4-23.657-21.42C319.944,124.955,345.705,121.455,361.664,121.455z M348.364,153.654
			c9.938,0,16.38-10.08,16.38-18.76v-2.66h-2.939c-8.961,0-24.221,1.4-24.221,12.04
			C337.583,149.035,341.224,153.654,348.364,153.654z"/>
		<path fill="#FFFFFF" enable-background="new    " d="M394.818,94.154v-2.38c0-22.68,20.02-26.18,27.438-26.18h1.961
			c3.779,0,5.879,1.96,5.879,5.88v3.641c0,3.779-2.1,5.458-6.02,5.739c-4.48,0.28-11.48,1.261-11.48,11.62v1.68h29.541v-2.38
			c0-22.68,20.021-26.18,27.439-26.18h1.959c3.781,0,5.881,1.96,5.881,5.88v3.641c0,3.779-2.1,5.458-6.02,5.739
			c-4.343,0.28-11.48,1.261-11.48,11.62v1.68h34.532c0,0,0.884,2.1,0.884,5.881l-0.083,2.715c0,3.92-1.737,5.545-4.958,5.545
			h-30.375v51.379c0,3.92-1.961,5.883-5.74,5.883h-6.16c-3.776,0-5.879-1.963-5.879-5.883v-51.379h-29.541v51.379
			c0,3.92-1.959,5.883-5.879,5.883h-6.021c-3.779,0-5.879-1.963-5.879-5.883v-51.379"/>
		<path fill="#FFFFFF" enable-background="new    " d="M484.551,100.046c0-3.78,2.103-5.881,5.879-5.881h6.021
			c3.92,0,5.881,2.101,5.881,5.881v67.34c0,23.24-20.301,27.16-27.301,27.16h-2.103c-3.776,0-5.737-1.961-5.737-5.881v-3.642
			c0-4.479,2.801-5.319,5.737-5.739c4.9-0.561,11.621-2.102,11.621-13.021L484.551,100.046L484.551,100.046z"/>
		<path fill="#FFFFFF" enable-background="new    " d="M549.535,93.33c21.699,0,39.34,15.539,39.34,37.379
			c0,21.979-17.641,37.381-39.34,37.381c-21.701,0-39.201-15.399-39.201-37.381C510.333,108.869,527.833,93.33,549.535,93.33z
			 M549.535,152.968c11.619,0,21.279-8.959,21.279-22.26c0-13.16-9.66-22.26-21.279-22.26c-11.621,0-21.144,9.1-21.144,22.26
			C528.394,144.009,537.914,152.968,549.535,152.968z"/>
		<path fill="#FFFFFF" enable-background="new    " d="M649.683,94h-7c-3.5,0-5.6,1.395-6.58,4.754l-12.6,36.703
			c-1.119,3.779-2.379,9.543-2.379,9.543h-0.281c0,0-1.397-6.115-2.66-9.896l-13.438-36.371c-1.119-3.221-3.08-4.731-6.58-4.731
			h-7.562c-4.479,0-6.299,2.652-4.479,6.713l27.16,63.347l0.021-0.034c-3.435,13.225-8.938,13.708-13.413,14.268
			c-2.935,0.451-5.726,1.312-5.678,5.793l0.039,3.633c0.042,3.921,1.951,6.556,5.729,6.515l2.101-0.022
			c6.559-0.069,17.151,1.222,27.477-27.976l0,0l24.884-65.661C655.843,96.513,654.023,94,649.683,94z"/>
		<circle fill="#FFFFFF" enable-background="new    " cx="493.596" cy="73.194" r="10.097"/>
		<g>
			<path fill="#FFFFFF" d="M397.635,108.253h-3.354c-3.918,0-5.876-1.959-5.876-5.877v-2.375c0-3.778,1.958-5.877,5.876-5.877h3.354
				"/>
		</g>
	</g>
</g>
<g id="Layer_2">
</g>
</svg>
