<?xml version="1.0" encoding="UTF-8" standalone="no"?>
<svg width="351px" height="466px" viewBox="0 0 351 466" version="1.1" xmlns="http://www.w3.org/2000/svg" xmlns:xlink="http://www.w3.org/1999/xlink">
    <!-- Generator: Sketch 39.1 (31720) - http://www.bohemiancoding.com/sketch -->
    <title>Right Icon BG</title>
    <desc>Created with Sketch.</desc>
    <defs></defs>
    <g id="Sign-up-Page" stroke="none" stroke-width="1" fill="none" fill-rule="evenodd" opacity="0.5">
        <g id="Sign-Up---Blank-State" transform="translate(-1089.000000, 0.000000)">
            <g id="Right-Icon-BG" transform="translate(1341.000000, 200.000000) rotate(21.000000) translate(-1341.000000, -200.000000) translate(1082.000000, -64.000000)">
                <g id="Group" transform="translate(0.000000, 68.228296)">
                    <g transform="translate(221.781857, 0.000000)" id="Shape">
                        <path d="M206.694138,36.5785584 L36.3675508,194.964969"></path>
                        <path d="M36.3747666,231.158477 C26.6838769,231.158477 17.0182427,227.267675 9.90702018,219.569316 C-3.63713469,204.910945 -2.77123241,182.018551 11.8372607,168.42065 L182.163848,10.0306203 C196.779556,-3.56004202 219.603297,-2.68777848 233.147452,11.9705923 C246.698823,26.6289631 245.832921,49.5285956 231.217212,63.1192579 L60.8978408,221.512907 C53.9561909,227.96621 45.152851,231.158477 36.3747666,231.158477 L36.3747666,231.158477 Z" fill="#FFFFFF" opacity="0.5"></path>
                    </g>
                    <g transform="translate(0.000000, 89.634896)" id="Shape">
                        <path d="M258.149408,105.330074 L36.2547325,36.5515502"></path>
                        <path d="M258.16384,141.53444 C254.63168,141.53444 251.045401,141.009634 247.502418,139.91659 L25.6077423,71.1416858 C6.56871589,65.2385247 -4.09270596,44.9773988 1.78099785,25.8708459 C7.66552545,6.7787704 27.8663041,-3.92364994 46.9089385,1.97227252 L268.803614,70.7507959 C287.835425,76.6539571 298.504062,96.9187023 292.623143,116.018017 C287.835425,131.55227 273.566077,141.53444 258.16384,141.53444 L258.16384,141.53444 Z" fill="#FFFFFF" opacity="0.5"></path>
                    </g>
                    <g transform="translate(221.781857, 158.402561)" id="Shape">
                        <path d="M36.3675508,36.5624082 L87.9428554,263.727342"></path>
                        <path d="M87.9067762,299.928089 C71.4402011,299.928089 56.5683294,288.541612 52.7583594,271.765921 L1.19027053,44.6009864 C-3.23665488,25.1107822 8.92927218,5.70744256 28.3543467,1.26649912 C47.7685975,-3.18530238 67.1179055,9.03362595 71.544831,28.5165914 L123.120136,255.688764 C127.547061,275.178968 115.381134,294.57145 95.9560595,299.016013 C93.2537228,299.631302 90.554994,299.928089 87.9067762,299.928089 L87.9067762,299.928089 Z" fill="#FFFFFF" opacity="0.5"></path>
                    </g>
                </g>
                <g id="Group" transform="translate(52.394426, 0.000000)" fill="#FFFFFF">
                    <path d="M207.165803,300.308121 C190.663149,300.308121 175.773238,288.88183 172.002955,272.040991 L121.055429,44.7349023 C116.686231,25.2302208 128.906277,5.87031335 148.345783,1.48366016 C167.781681,-2.89937366 187.087694,9.35574817 191.456893,28.8568103 L242.397202,256.173757 C246.773617,275.682058 234.553571,295.034727 215.114065,299.42138 C212.451415,300.022192 209.785158,300.308121 207.165803,300.308121 L207.165803,300.308121 Z" id="Shape"></path>
                    <path d="M36.4423446,458.213158 C26.7117677,458.213158 17.0136622,454.289782 9.9060476,446.54799 C-3.59481215,431.849807 -2.67118305,408.953794 11.9769972,395.402944 L182.747359,237.494288 C197.399147,223.950677 220.222888,224.884469 233.730964,239.571795 C247.231824,254.273598 246.300979,277.165992 231.652798,290.716841 L60.8896524,448.625498 C53.9552183,455.042607 45.1879577,458.213158 36.4423446,458.213158 L36.4423446,458.213158 Z" id="Shape"></path>
                    <path d="M428.912554,369.709173 C425.347923,369.709173 421.732781,369.173509 418.153718,368.055129 L196.457478,298.657697 C177.4401,292.703865 166.825581,272.410165 172.767835,253.332567 C178.702874,234.254969 198.9253,223.606839 217.949895,229.567909 L439.646134,298.961722 C458.670729,304.919174 469.278032,325.209255 463.342994,344.283233 C458.522804,359.777674 444.275104,369.709173 428.912554,369.709173 L428.912554,369.709173 Z" id="Shape"></path>
                </g>
            </g>
        </g>
    </g>
</svg>