<?xml version="1.0" encoding="UTF-8" standalone="no"?>
<svg width="80px" height="64px" viewBox="0 0 80 64" version="1.1" xmlns="http://www.w3.org/2000/svg" xmlns:xlink="http://www.w3.org/1999/xlink">
    <!-- Generator: Sketch 39.1 (31720) - http://www.bohemiancoding.com/sketch -->
    <title>Enterprise Icon</title>
    <desc>Created with Sketch.</desc>
    <defs></defs>
    <g id="Confirmation" stroke="none" stroke-width="1" fill="none" fill-rule="evenodd">
        <g id="V7_current" transform="translate(-1070.000000, -401.000000)">
            <g id="Enterprise-Icon" transform="translate(1060.000000, 395.000000)">
                <path d="M70,36.6666667 L70,16.6666667 L60,6.66666667 L50,16.6666667 L50,23.3333333 L30,23.3333333 L30,70 L90,70 L90,36.6666667 L70,36.6666667 L70,36.6666667 Z M43.3333333,63.3333333 L36.6666667,63.3333333 L36.6666667,56.6666667 L43.3333333,56.6666667 L43.3333333,63.3333333 L43.3333333,63.3333333 Z M43.3333333,50 L36.6666667,50 L36.6666667,43.3333333 L43.3333333,43.3333333 L43.3333333,50 L43.3333333,50 Z M43.3333333,36.6666667 L36.6666667,36.6666667 L36.6666667,30 L43.3333333,30 L43.3333333,36.6666667 L43.3333333,36.6666667 Z M63.3333333,63.3333333 L56.6666667,63.3333333 L56.6666667,56.6666667 L63.3333333,56.6666667 L63.3333333,63.3333333 L63.3333333,63.3333333 Z M63.3333333,50 L56.6666667,50 L56.6666667,43.3333333 L63.3333333,43.3333333 L63.3333333,50 L63.3333333,50 Z M63.3333333,36.6666667 L56.6666667,36.6666667 L56.6666667,30 L63.3333333,30 L63.3333333,36.6666667 L63.3333333,36.6666667 Z M63.3333333,23.3333333 L56.6666667,23.3333333 L56.6666667,16.6666667 L63.3333333,16.6666667 L63.3333333,23.3333333 L63.3333333,23.3333333 Z M83.3333333,63.3333333 L76.6666667,63.3333333 L76.6666667,56.6666667 L83.3333333,56.6666667 L83.3333333,63.3333333 L83.3333333,63.3333333 Z M83.3333333,50 L76.6666667,50 L76.6666667,43.3333333 L83.3333333,43.3333333 L83.3333333,50 L83.3333333,50 Z" id="Shape" fill="#7F757D"></path>
                <g id="Group-7">
                    <polygon id="Shape" points="20 0 100 0 100 80 20 80"></polygon>
                    <g id="Group-Copy">
                        <path d="M50,36.6666667 L50,16.6666667 L40,6.66666667 L30,16.6666667 L30,23.3333333 L10,23.3333333 L10,70 L70,70 L70,36.6666667 L50,36.6666667 L50,36.6666667 Z M23.3333333,63.3333333 L16.6666667,63.3333333 L16.6666667,56.6666667 L23.3333333,56.6666667 L23.3333333,63.3333333 L23.3333333,63.3333333 Z M23.3333333,50 L16.6666667,50 L16.6666667,43.3333333 L23.3333333,43.3333333 L23.3333333,50 L23.3333333,50 Z M23.3333333,36.6666667 L16.6666667,36.6666667 L16.6666667,30 L23.3333333,30 L23.3333333,36.6666667 L23.3333333,36.6666667 Z M43.3333333,63.3333333 L36.6666667,63.3333333 L36.6666667,56.6666667 L43.3333333,56.6666667 L43.3333333,63.3333333 L43.3333333,63.3333333 Z M43.3333333,50 L36.6666667,50 L36.6666667,43.3333333 L43.3333333,43.3333333 L43.3333333,50 L43.3333333,50 Z M43.3333333,36.6666667 L36.6666667,36.6666667 L36.6666667,30 L43.3333333,30 L43.3333333,36.6666667 L43.3333333,36.6666667 Z M43.3333333,23.3333333 L36.6666667,23.3333333 L36.6666667,16.6666667 L43.3333333,16.6666667 L43.3333333,23.3333333 L43.3333333,23.3333333 Z M63.3333333,63.3333333 L56.6666667,63.3333333 L56.6666667,56.6666667 L63.3333333,56.6666667 L63.3333333,63.3333333 L63.3333333,63.3333333 Z M63.3333333,50 L56.6666667,50 L56.6666667,43.3333333 L63.3333333,43.3333333 L63.3333333,50 L63.3333333,50 Z" id="Shape" fill="#48B7AB"></path>
                        <polygon id="Shape" points="0 0 80 0 80 80 0 80"></polygon>
                    </g>
                </g>
            </g>
        </g>
    </g>
</svg>