<?xml version="1.0" encoding="UTF-8" standalone="no"?>
<svg width="60px" height="54px" viewBox="0 0 60 54" version="1.1" xmlns="http://www.w3.org/2000/svg" xmlns:xlink="http://www.w3.org/1999/xlink">
    <!-- Generator: Sketch 39.1 (31720) - http://www.bohemiancoding.com/sketch -->
    <title>Free Icon</title>
    <desc>Created with Sketch.</desc>
    <defs></defs>
    <g id="Confirmation" stroke="none" stroke-width="1" fill="none" fill-rule="evenodd">
        <g id="V7_current" transform="translate(-300.000000, -408.000000)">
            <g id="Free-Icon" transform="translate(290.000000, 395.000000)">
                <polygon id="Shape" points="0 0 80 0 80 80 0 80"></polygon>
                <path d="M66.6666667,13.3333333 L13.3333333,13.3333333 L13.3333333,20 L66.6666667,20 L66.6666667,13.3333333 L66.6666667,13.3333333 Z M70,46.6666667 L70,40 L66.6666667,23.3333333 L13.3333333,23.3333333 L10,40 L10,46.6666667 L13.3333333,46.6666667 L13.3333333,66.6666667 L46.6666667,66.6666667 L46.6666667,46.6666667 L60,46.6666667 L60,66.6666667 L66.6666667,66.6666667 L66.6666667,46.6666667 L70,46.6666667 L70,46.6666667 Z M40,60 L20,60 L20,46.6666667 L40,46.6666667 L40,60 L40,60 Z" id="Shape" fill="#48B7AB"></path>
            </g>
        </g>
    </g>
</svg>