<?xml version="1.0" encoding="UTF-8" standalone="no"?>
<svg width="384px" height="207px" viewBox="0 0 384 207" version="1.1" xmlns="http://www.w3.org/2000/svg" xmlns:xlink="http://www.w3.org/1999/xlink">
    <!-- Generator: Sketch 39.1 (31720) - http://www.bohemiancoding.com/sketch -->
    <title>Group 2</title>
    <desc>Created with Sketch.</desc>
    <defs></defs>
    <g id="Page-1" stroke="none" stroke-width="1" fill="none" fill-rule="evenodd">
        <g id="Artboard" transform="translate(-50.000000, -147.000000)">
            <g id="Group-2" transform="translate(50.000000, 147.000000)">
                <g id="Boss-Icon" transform="translate(77.000000, 140.000000)">
                    <g id="Group-Copy-4" transform="translate(149.000000, 0.000000)">
                        <polygon id="Shape" points="0 0 79.5521639 0 79.5521639 79.5521639 0 79.5521639"></polygon>
                        <path d="M76.2934699,13.258694 L23.258694,13.258694 L23.258694,19.888041 L76.2934699,19.888041 L76.2934699,13.258694 L76.2934699,13.258694 Z M79.6081434,46.405429 L79.6081434,39.776082 L76.2934699,23.2027145 L23.258694,23.2027145 L19.9440205,39.776082 L19.9440205,46.405429 L23.258694,46.405429 L23.258694,66.2934699 L56.405429,66.2934699 L56.405429,46.405429 L69.664123,46.405429 L69.664123,66.2934699 L76.2934699,66.2934699 L76.2934699,46.405429 L79.6081434,46.405429 L79.6081434,46.405429 Z M49.776082,59.664123 L29.888041,59.664123 L29.888041,46.405429 L49.776082,46.405429 L49.776082,59.664123 L49.776082,59.664123 Z" id="Shape" fill="#FFFFFF"></path>
                    </g>
                    <g id="Group-Copy-2">
                        <polygon id="Shape" points="1 0 80.5521639 0 80.5521639 79.5521639 1 79.5521639"></polygon>
                        <path d="M57.2934699,13.258694 L4.25869399,13.258694 L4.25869399,19.888041 L57.2934699,19.888041 L57.2934699,13.258694 L57.2934699,13.258694 Z M60.6081434,46.405429 L60.6081434,39.776082 L57.2934699,23.2027145 L4.25869399,23.2027145 L0.944020492,39.776082 L0.944020492,46.405429 L4.25869399,46.405429 L4.25869399,66.2934699 L37.405429,66.2934699 L37.405429,46.405429 L50.664123,46.405429 L50.664123,66.2934699 L57.2934699,66.2934699 L57.2934699,46.405429 L60.6081434,46.405429 L60.6081434,46.405429 Z M30.776082,59.664123 L10.888041,59.664123 L10.888041,46.405429 L30.776082,46.405429 L30.776082,59.664123 L30.776082,59.664123 Z" id="Shape" fill="#FFFFFF"></path>
                    </g>
                    <g id="Group" transform="translate(75.000000, 0.000000)">
                        <polygon id="Shape" points="0 0 79.5521639 0 79.5521639 79.5521639 0 79.5521639"></polygon>
                        <path d="M66.2934699,13.258694 L13.258694,13.258694 L13.258694,19.888041 L66.2934699,19.888041 L66.2934699,13.258694 L66.2934699,13.258694 Z M69.6081434,46.405429 L69.6081434,39.776082 L66.2934699,23.2027145 L13.258694,23.2027145 L9.94402049,39.776082 L9.94402049,46.405429 L13.258694,46.405429 L13.258694,66.2934699 L46.405429,66.2934699 L46.405429,46.405429 L59.664123,46.405429 L59.664123,66.2934699 L66.2934699,66.2934699 L66.2934699,46.405429 L69.6081434,46.405429 L69.6081434,46.405429 Z M39.776082,59.664123 L19.888041,59.664123 L19.888041,46.405429 L39.776082,46.405429 L39.776082,59.664123 L39.776082,59.664123 Z" id="Shape" fill="#CBDC57"></path>
                    </g>
                </g>
                <g id="Free-Icon" transform="translate(102.000000, 66.000000)">
                    <polygon id="Shape" points="0 0 80 0 80 80 0 80"></polygon>
                    <path d="M66.6666667,13.3333333 L13.3333333,13.3333333 L13.3333333,20 L66.6666667,20 L66.6666667,13.3333333 L66.6666667,13.3333333 Z M70,46.6666667 L70,40 L66.6666667,23.3333333 L13.3333333,23.3333333 L10,40 L10,46.6666667 L13.3333333,46.6666667 L13.3333333,66.6666667 L46.6666667,66.6666667 L46.6666667,46.6666667 L60,46.6666667 L60,66.6666667 L66.6666667,66.6666667 L66.6666667,46.6666667 L70,46.6666667 L70,46.6666667 Z M40,60 L20,60 L20,46.6666667 L40,46.6666667 L40,60 L40,60 Z" id="Shape" fill="#CBDC57"></path>
                </g>
                <g id="Enterprise-Icon" transform="translate(180.000000, 66.000000)">
                    <path d="M70,36.6666667 L70,16.6666667 L60,6.66666667 L50,16.6666667 L50,23.3333333 L30,23.3333333 L30,70 L90,70 L90,36.6666667 L70,36.6666667 L70,36.6666667 Z M43.3333333,63.3333333 L36.6666667,63.3333333 L36.6666667,56.6666667 L43.3333333,56.6666667 L43.3333333,63.3333333 L43.3333333,63.3333333 Z M43.3333333,50 L36.6666667,50 L36.6666667,43.3333333 L43.3333333,43.3333333 L43.3333333,50 L43.3333333,50 Z M43.3333333,36.6666667 L36.6666667,36.6666667 L36.6666667,30 L43.3333333,30 L43.3333333,36.6666667 L43.3333333,36.6666667 Z M63.3333333,63.3333333 L56.6666667,63.3333333 L56.6666667,56.6666667 L63.3333333,56.6666667 L63.3333333,63.3333333 L63.3333333,63.3333333 Z M63.3333333,50 L56.6666667,50 L56.6666667,43.3333333 L63.3333333,43.3333333 L63.3333333,50 L63.3333333,50 Z M63.3333333,36.6666667 L56.6666667,36.6666667 L56.6666667,30 L63.3333333,30 L63.3333333,36.6666667 L63.3333333,36.6666667 Z M63.3333333,23.3333333 L56.6666667,23.3333333 L56.6666667,16.6666667 L63.3333333,16.6666667 L63.3333333,23.3333333 L63.3333333,23.3333333 Z M83.3333333,63.3333333 L76.6666667,63.3333333 L76.6666667,56.6666667 L83.3333333,56.6666667 L83.3333333,63.3333333 L83.3333333,63.3333333 Z M83.3333333,50 L76.6666667,50 L76.6666667,43.3333333 L83.3333333,43.3333333 L83.3333333,50 L83.3333333,50 Z" id="Shape" fill="#CBDC57"></path>
                    <g id="Group-7">
                        <polygon id="Shape" points="20 0 100 0 100 80 20 80"></polygon>
                        <g id="Group-Copy">
                            <path d="M50,36.6666667 L50,16.6666667 L40,6.66666667 L30,16.6666667 L30,23.3333333 L10,23.3333333 L10,70 L70,70 L70,36.6666667 L50,36.6666667 L50,36.6666667 Z M23.3333333,63.3333333 L16.6666667,63.3333333 L16.6666667,56.6666667 L23.3333333,56.6666667 L23.3333333,63.3333333 L23.3333333,63.3333333 Z M23.3333333,50 L16.6666667,50 L16.6666667,43.3333333 L23.3333333,43.3333333 L23.3333333,50 L23.3333333,50 Z M23.3333333,36.6666667 L16.6666667,36.6666667 L16.6666667,30 L23.3333333,30 L23.3333333,36.6666667 L23.3333333,36.6666667 Z M43.3333333,63.3333333 L36.6666667,63.3333333 L36.6666667,56.6666667 L43.3333333,56.6666667 L43.3333333,63.3333333 L43.3333333,63.3333333 Z M43.3333333,50 L36.6666667,50 L36.6666667,43.3333333 L43.3333333,43.3333333 L43.3333333,50 L43.3333333,50 Z M43.3333333,36.6666667 L36.6666667,36.6666667 L36.6666667,30 L43.3333333,30 L43.3333333,36.6666667 L43.3333333,36.6666667 Z M43.3333333,23.3333333 L36.6666667,23.3333333 L36.6666667,16.6666667 L43.3333333,16.6666667 L43.3333333,23.3333333 L43.3333333,23.3333333 Z M63.3333333,63.3333333 L56.6666667,63.3333333 L56.6666667,56.6666667 L63.3333333,56.6666667 L63.3333333,63.3333333 L63.3333333,63.3333333 Z M63.3333333,50 L56.6666667,50 L56.6666667,43.3333333 L63.3333333,43.3333333 L63.3333333,50 L63.3333333,50 Z" id="Shape" fill="#FFFFFF"></path>
                            <polygon id="Shape" points="0 0 80 0 80 80 0 80"></polygon>
                        </g>
                    </g>
                </g>
                <path d="M195,30 L195,10 L185,0 L175,10 L175,16.6666667 L155,16.6666667 L155,63.3333333 L215,63.3333333 L215,30 L195,30 L195,30 Z M168.333333,56.6666667 L161.666667,56.6666667 L161.666667,50 L168.333333,50 L168.333333,56.6666667 L168.333333,56.6666667 Z M168.333333,43.3333333 L161.666667,43.3333333 L161.666667,36.6666667 L168.333333,36.6666667 L168.333333,43.3333333 L168.333333,43.3333333 Z M168.333333,30 L161.666667,30 L161.666667,23.3333333 L168.333333,23.3333333 L168.333333,30 L168.333333,30 Z M188.333333,56.6666667 L181.666667,56.6666667 L181.666667,50 L188.333333,50 L188.333333,56.6666667 L188.333333,56.6666667 Z M188.333333,43.3333333 L181.666667,43.3333333 L181.666667,36.6666667 L188.333333,36.6666667 L188.333333,43.3333333 L188.333333,43.3333333 Z M188.333333,30 L181.666667,30 L181.666667,23.3333333 L188.333333,23.3333333 L188.333333,30 L188.333333,30 Z M188.333333,16.6666667 L181.666667,16.6666667 L181.666667,10 L188.333333,10 L188.333333,16.6666667 L188.333333,16.6666667 Z M208.333333,56.6666667 L201.666667,56.6666667 L201.666667,50 L208.333333,50 L208.333333,56.6666667 L208.333333,56.6666667 Z M208.333333,43.3333333 L201.666667,43.3333333 L201.666667,36.6666667 L208.333333,36.6666667 L208.333333,43.3333333 L208.333333,43.3333333 Z" id="Shape" fill="#FFFFFF" transform="translate(185.000000, 31.666667) scale(-1, 1) translate(-185.000000, -31.666667) "></path>
                <g id="group" transform="translate(295.000000, 66.000000)" fill="#FFFFFF">
                    <g id="Layer_1">
                        <g id="Group" transform="translate(13.933333, 0.000000)">
                            <g transform="translate(0.000000, 11.400000)" id="Shape">
                                <path d="M5.7,0 C3.8,0 2.28,0.506666667 1.14,1.14 C2.91333333,2.66 3.67333333,4.43333333 3.8,4.56 L3.92666667,4.81333333 L3.92666667,7.6 L14.06,7.6 L14.06,5.06666667 C13.9333333,5.06666667 11.9066667,0 5.7,0 L5.7,0 Z"></path>
                            </g>
                            <g transform="translate(1.266667, 0.000000)" id="Oval">
                                <ellipse cx="4.43333333" cy="4.43333333" rx="4.43333333" ry="4.43333333"></ellipse>
                            </g>
                        </g>
                        <g id="Group">
                            <path d="M3.8,4.43333333 C3.8,2.02666667 5.82666667,0 8.23333333,0 C10.64,0 12.6666667,2.02666667 12.6666667,4.43333333 C12.6666667,6.84 10.64,8.86666667 8.23333333,8.86666667 C5.82666667,8.86666667 3.8,6.84 3.8,4.43333333 L3.8,4.43333333 Z M8.23333333,11.4 C2.02666667,11.4 0,16.4666667 0,16.4666667 L0,19 L16.4666667,19 L16.4666667,16.4666667 C16.4666667,16.4666667 14.44,11.4 8.23333333,11.4 L8.23333333,11.4 Z" id="Shape"></path>
                        </g>
                    </g>
                </g>
                <g id="clock" transform="translate(58.000000, 98.000000)" stroke-width="2" stroke="#FFFFFF">
                    <g id="Layer_1">
                        <path d="M15,30 C6.66666667,30 0,23.3333333 0,15 C0,6.66666667 6.66666667,0 15,0 C23.3333333,0 30,6.66666667 30,15 C30,23.3333333 23.3333333,30 15,30 L15,30 Z" id="Shape"></path>
                        <polyline id="Shape" points="15 6.66666667 15 15 20 20"></polyline>
                    </g>
                </g>
                <g id="globe" transform="translate(248.000000, 25.000000)" fill="#FFFFFF">
                    <g id="Layer_1">
                        <path d="M27.58,14 C27.58,21.56 21.42,27.58 14,27.58 C6.58,27.58 0.42,21.56 0.42,14 C0.42,6.44 6.44,0.42 14,0.42 C21.56,0.42 27.58,6.44 27.58,14 L27.58,14 Z M13.86,20.44 C13.86,20.16 13.72,20.02 13.44,19.88 C12.6,19.6 11.76,19.6 11.06,18.9 C10.92,18.62 10.92,18.34 10.78,18.06 C10.5,17.78 9.8,17.64 9.38,17.5 L7.56,17.5 L6.58,17.5 C6.16,17.36 5.88,16.8 5.6,16.38 C5.6,16.24 5.6,15.96 5.32,15.96 C5.04,15.82 4.76,16.1 4.48,15.96 C4.34,15.82 4.34,15.68 4.34,15.54 C4.34,15.12 4.62,14.7 4.9,14.42 C5.32,14.14 5.74,14.56 6.16,14.56 C6.3,14.56 6.3,14.56 6.44,14.7 C6.86,14.84 7,15.4 7,15.82 L7,16.1 C7,16.24 7.14,16.24 7.28,16.24 C7.42,15.54 7.42,14.84 7.56,14.14 C7.56,13.3 8.4,12.46 9.1,12.18 C9.38,12.04 9.52,12.32 9.8,12.18 C10.64,11.9 12.74,11.06 12.32,9.94 C12.04,8.96 11.2,7.98 10.08,8.12 C9.8,8.26 9.66,8.4 9.38,8.54 C8.96,8.82 8.12,9.66 7.7,9.66 C7,9.52 7,8.54 7.14,8.12 C7.28,7.56 8.54,5.74 9.38,6.02 C9.52,6.16 9.8,6.44 9.94,6.58 C10.22,6.72 10.64,6.72 11.06,6.72 C11.2,6.72 11.34,6.72 11.48,6.58 C11.62,6.44 11.62,6.44 11.62,6.3 C11.62,5.88 11.2,5.46 10.92,5.18 C10.64,4.9 10.22,4.62 9.8,4.48 C8.4,4.06 6.16,4.62 5.04,5.6 C3.92,6.58 3.08,8.26 2.52,9.66 C2.24,10.5 1.96,11.62 1.82,12.6 C1.68,13.3 1.54,13.86 1.96,14.56 C2.38,15.4 3.22,16.24 4.06,16.8 C4.62,17.22 5.74,17.22 6.3,17.92 C6.72,18.48 6.58,19.18 6.58,19.88 C6.58,20.72 7.14,21.42 7.42,22.12 C7.56,22.54 7.7,23.1 7.84,23.52 C7.84,23.66 7.98,24.5 7.98,24.64 C8.82,25.06 9.52,25.48 10.5,25.76 C10.64,25.76 11.2,24.92 11.2,24.78 C11.62,24.36 11.9,23.8 12.32,23.52 C12.6,23.38 12.88,23.24 13.16,22.96 C13.44,22.68 13.58,22.12 13.72,21.7 C13.86,21.42 14,20.86 13.86,20.44 L13.86,20.44 Z M14.14,7.56 C14.28,7.56 14.42,7.42 14.7,7.28 C15.12,7 15.54,6.58 15.96,6.3 C16.38,6.02 16.8,5.6 17.08,5.32 C17.5,5.04 17.78,4.48 17.92,4.06 C18.06,3.78 18.48,3.22 18.34,2.8 C18.2,2.52 17.5,2.38 17.22,2.24 C16.1,1.96 15.12,1.82 14,1.82 C13.58,1.82 13.02,1.96 12.88,2.38 C12.74,3.08 13.3,2.94 13.86,3.08 C13.86,3.08 14,4.2 14,4.34 C14.14,5.04 13.72,5.46 13.72,6.16 C13.72,6.58 13.72,7.28 14,7.56 C14,7.56 14.14,7.56 14.14,7.56 L14.14,7.56 Z M25.9,17.36 C26.04,17.08 26.04,16.66 26.18,16.38 C26.32,15.68 26.32,14.98 26.32,14.28 C26.32,12.88 26.18,11.48 25.76,10.22 C25.48,9.8 25.34,9.38 25.2,8.96 C24.92,8.26 24.5,7.56 23.94,7 C23.38,6.3 22.68,4.34 21.42,4.9 C21,5.04 20.72,5.6 20.44,5.88 C20.16,6.3 19.88,6.72 19.6,7.14 C19.46,7.28 19.32,7.56 19.46,7.7 C19.46,7.84 19.6,7.84 19.74,7.84 C20.02,7.98 20.16,7.98 20.44,8.12 C20.58,8.12 20.72,8.26 20.58,8.4 C20.58,8.4 20.58,8.54 20.44,8.54 C19.74,9.24 19.04,9.8 18.34,10.5 C18.2,10.64 18.06,10.92 18.06,11.06 C18.06,11.2 18.2,11.2 18.2,11.34 C18.2,11.48 18.06,11.48 17.92,11.62 C17.64,11.76 17.36,11.9 17.22,12.04 C17.08,12.32 17.22,12.74 17.08,13.02 C16.94,13.72 16.52,14.28 16.24,14.98 C15.96,15.4 15.82,15.82 15.54,16.24 C15.54,16.8 15.4,17.22 15.68,17.64 C16.38,18.62 17.64,18.06 18.62,18.48 C18.9,18.62 19.18,18.62 19.32,18.9 C19.74,19.32 19.74,20.02 19.88,20.44 C20.02,21 20.16,21.56 20.44,22.12 C20.58,22.82 20.86,23.52 21,24.08 C22.26,23.1 23.38,21.98 24.22,20.58 C25.06,19.6 25.48,18.48 25.9,17.36 L25.9,17.36 Z" id="Shape"></path>
                        <path d="M14,0 C6.3,0 0,6.3 0,14 C0,21.7 6.3,28 14,28 C21.7,28 28,21.7 28,14 C28,6.3 21.7,0 14,0 L14,0 Z M14,25.76 C7.56,25.76 2.24,20.44 2.24,14 C2.24,7.56 7.56,2.24 14,2.24 C20.44,2.24 25.76,7.56 25.76,14 C25.76,20.44 20.44,25.76 14,25.76 L14,25.76 Z" id="Shape"></path>
                    </g>
                </g>
                <g id="collaboration" transform="translate(19.000000, 165.000000)">
                    <g id="Layer_1">
                        <path d="M5.89473684,16.2105263 C7.51578947,16.2105263 8.84210526,17.5368421 8.84210526,19.1578947 C8.84210526,20.7789474 7.51578947,22.1052632 5.89473684,22.1052632 C4.27368421,22.1052632 2.94736842,20.7789474 2.94736842,19.1578947 C2.94736842,17.5368421 4.27368421,16.2105263 5.89473684,16.2105263 L5.89473684,16.2105263 Z M11.7894737,28 L6.04210526,28 L5.74736842,28 L0,28 L0,26.5263158 C0,26.5263158 1.76842105,23.5789474 5.89473684,23.5789474 C10.0210526,23.5789474 11.7894737,26.5263158 11.7894737,26.5263158 L11.7894737,28 L11.7894737,28 Z" id="Shape" fill="#FFFFFF"></path>
                        <path d="M23.5789474,16.2105263 C25.2,16.2105263 26.5263158,17.5368421 26.5263158,19.1578947 C26.5263158,20.7789474 25.2,22.1052632 23.5789474,22.1052632 C21.9578947,22.1052632 20.6315789,20.7789474 20.6315789,19.1578947 C20.6315789,17.5368421 21.9578947,16.2105263 23.5789474,16.2105263 L23.5789474,16.2105263 Z M29.4736842,28 L23.7263158,28 L23.5789474,28 L17.6842105,28 L17.6842105,26.5263158 C17.6842105,26.5263158 19.4526316,23.5789474 23.5789474,23.5789474 C27.7052632,23.5789474 29.4736842,26.5263158 29.4736842,26.5263158 L29.4736842,28 L29.4736842,28 Z" id="Shape" fill="#FFFFFF"></path>
                        <path d="M2.94736842,11.7894737 L4.42105263,11.7894737 L6.92631579,8.84210526 L14.7368421,8.84210526 C16.3578947,8.84210526 17.6842105,7.51578947 17.6842105,5.89473684 L17.6842105,2.94736842 C17.6842105,1.32631579 16.3578947,0 14.7368421,0 L5.89473684,0 C4.27368421,0 2.94736842,1.32631579 2.94736842,2.94736842 L2.94736842,11.7894737 L2.94736842,11.7894737 Z" id="Shape" stroke="#FFFFFF" stroke-width="2"></path>
                        <path d="M23.5789474,1.47368421 L17.6842105,1.47368421 L17.6842105,5.89473684 C17.6842105,7.51578947 16.3578947,8.84210526 14.7368421,8.84210526 L13.2631579,8.84210526 L13.2631579,8.84210526 C13.2631579,10.4631579 14.5894737,11.7894737 16.2105263,11.7894737 L23.5789474,11.7894737 L26.5263158,14.7368421 L26.5263158,4.42105263 C26.5263158,2.8 25.2,1.47368421 23.5789474,1.47368421 L23.5789474,1.47368421 Z" id="Shape" fill="#FFFFFF"></path>
                    </g>
                </g>
                <g id="shuffle" transform="translate(306.000000, 111.000000)" fill="#FFFFFF">
                    <g id="Layer_1">
                        <polygon id="Shape" points="18.75 25 18.75 15 25 20"></polygon>
                        <polygon id="Shape" points="18.75 10 18.75 0 25 5"></polygon>
                        <path d="M15.25,3.75 C13.875,3.75 12.5,4.5 11.875,5.875 L5.75,18.125 C5.625,18.5 5.125,18.75 4.75,18.75 L0,18.75 L0,21.25 L4.75,21.25 C6.125,21.25 7.5,20.5 8.125,19.125 L14.25,6.875 C14.375,6.5 14.875,6.25 15.25,6.25 L20,6.25 L20,3.75 L15.25,3.75 L15.25,3.75 Z" id="Shape"></path>
                        <g id="Group" transform="translate(0.000000, 3.750000)">
                            <path d="M14.125,14.25 L12,10.125 L10.625,12.875 L11.875,15.375 C12.5,16.625 13.75,17.5 15.25,17.5 L20,17.5 L20,15 L15.25,15 C14.875,15 14.375,14.75 14.125,14.25 L14.125,14.25 Z" id="Shape"></path>
                            <path d="M5.875,3.25 L8,7.375 L9.375,4.625 L8.125,2.125 C7.375,0.75 6.125,0 4.75,0 L0,0 L0,2.5 L4.75,2.5 C5.125,2.5 5.625,2.75 5.875,3.25 L5.875,3.25 Z" id="Shape"></path>
                        </g>
                    </g>
                </g>
                <g id="overtime" transform="translate(358.000000, 130.000000)">
                    <g id="Layer_1">
                        <rect id="Rectangle-path" fill="#FFFFFF" x="19.1578947" y="0" width="2.73684211" height="5.47368421"></rect>
                        <ellipse id="Oval" stroke="#FFFFFF" stroke-width="2" cx="6.84210526" cy="8.21052632" rx="6.84210526" ry="6.84210526"></ellipse>
                        <rect id="Rectangle-path" fill="#FFFFFF" x="13.6842105" y="15.0526316" width="6.84210526" height="6.84210526"></rect>
                        <polyline id="Shape" stroke="#FFFFFF" stroke-width="2" points="6.84210526 4.10526316 6.84210526 8.21052632 9.03157895 10.4"></polyline>
                        <path d="M23.2631579,2.73684211 L14.6421053,2.73684211 C15.7368421,4.24210526 16.4210526,6.15789474 16.4210526,8.21052632 C16.4210526,8.62105263 16.4210526,9.16842105 16.2842105,9.57894737 L23.2631579,9.57894737 L23.2631579,24.6315789 L4.10526316,24.6315789 L4.10526316,17.3789474 C3.14736842,17.1052632 2.18947368,16.6947368 1.36842105,16.0105263 L1.36842105,24.6315789 C1.36842105,26.1368421 2.6,27.3684211 4.10526316,27.3684211 L23.2631579,27.3684211 C24.7684211,27.3684211 26,26.1368421 26,24.6315789 L26,5.47368421 C26,3.96842105 24.7684211,2.73684211 23.2631579,2.73684211 L23.2631579,2.73684211 Z" id="Shape" fill="#FFFFFF"></path>
                    </g>
                </g>
                <g id="under_computer" transform="translate(102.000000, 19.000000)" fill="#FFFFFF">
                    <g id="Layer_1">
                        <path d="M17.25,15.8125 C16.332875,15.895875 11.7946875,16.8719375 11.7946875,16.8719375 C11.4151875,16.30125 8.1865625,10.30975 7.7869375,9.6988125 C7.391625,9.0979375 6.5966875,8.625 5.75,8.625 L4.3771875,8.625 C3.9344375,8.625 2.4883125,9.2244375 1.1974375,13.923625 C0.2026875,17.549 0,23 0,23 L7.1875,23 L7.1875,15.8125 C7.1875,15.8125 9.381125,19.10725 9.706,19.472375 C10.1961875,20.024375 10.283875,20.194 10.881875,20.102 C11.4195,20.018625 17.25,18.6875 17.25,18.6875 L17.25,15.8125 L17.25,15.8125 Z" id="Shape"></path>
                        <rect id="Rectangle-path" x="12.9375" y="18.6875" width="15.8125" height="2.875"></rect>
                        <rect id="Rectangle-path" x="12.9375" y="17.25" width="12.9375" height="1.4375"></rect>
                        <polygon id="Shape" points="24.4375 7.1875 25.875 5.75 27.3125 20.125 24.4375 20.125"></polygon>
                        <polygon id="Shape" points="21.4374375 15.9116875 18.6875 14.5000625 26.481625 1.012 28.5386875 2.0656875"></polygon>
                        <circle id="Oval" cx="7.90625" cy="3.59375" r="3.59375"></circle>
                    </g>
                </g>
                <g id="cup" transform="translate(326.000000, 171.000000)">
                    <g id="Layer_1">
                        <path d="M9,0 C9,4.5 6,3 6,7.5" id="Shape" stroke="#FFFFFF" stroke-width="2"></path>
                        <path d="M16.5,30 L3,30 C1.35,30 0,28.65 0,27 L0,9 L19.5,9 L19.5,27 C19.5,28.65 18.15,30 16.5,30 L16.5,30 Z" id="Shape" fill="#FFFFFF"></path>
                        <path d="M13.5,7.5 C13.5,5.25 16.05,5.55 16.05,1.5 L13.05,1.5 C13.05,5.1 10.5,5.1 10.5,7.5 L13.5,7.5 L13.5,7.5 Z" id="Shape" fill="#FFFFFF"></path>
                        <path d="M21,19.5 L15,19.5 L15,10.5 L21,10.5 C22.65,10.5 24,11.85 24,13.5 L24,16.5 C24,18.15 22.65,19.5 21,19.5 L21,19.5 Z" id="Shape" stroke="#FFFFFF" stroke-width="2"></path>
                    </g>
                </g>
                <g id="flow_chart" transform="translate(0.000000, 111.000000)">
                    <g id="Layer_1">
                        <path d="M8.4,0 L15.6,0 C16.92,0 18,1.08 18,2.4 L18,4.8 C18,6.12 16.92,7.2 15.6,7.2 L8.4,7.2 C7.08,7.2 6,6.12 6,4.8 L6,2.4 C6,1.08 7.08,0 8.4,0 L8.4,0 Z" id="Shape" fill="#FFFFFF"></path>
                        <path d="M12,12 L12,16.8" id="Shape" stroke="#FFFFFF" stroke-width="2"></path>
                        <path d="M12,8.4 L12,13.2" id="Shape" stroke="#FFFFFF" stroke-width="2"></path>
                        <path d="M20.4,16.8 L20.4,13.2 C20.4,12.48 19.92,12 19.2,12 L4.8,12 C4.08,12 3.6,12.48 3.6,13.2 L3.6,16.8" id="Shape" stroke="#FFFFFF" stroke-width="2"></path>
                        <path d="M7.2,0 L16.8,0 C17.52,0 18,0.48 18,1.2 L18,6 C18,6.72 17.52,7.2 16.8,7.2 L7.2,7.2 C6.48,7.2 6,6.72 6,6 L6,1.2 C6,0.48 6.48,0 7.2,0 L7.2,0 Z" id="Shape" fill="#FFFFFF"></path>
                        <path d="M0,22.8 L0,18 C0,17.28 0.48,16.8 1.2,16.8 L6,16.8 C6.72,16.8 7.2,17.28 7.2,18 L7.2,22.8 C7.2,23.52 6.72,24 6,24 L1.2,24 C0.48,24 0,23.52 0,22.8 L0,22.8 Z" id="Shape" fill="#FFFFFF"></path>
                        <path d="M8.4,22.8 L8.4,18 C8.4,17.28 8.88,16.8 9.6,16.8 L14.4,16.8 C15.12,16.8 15.6,17.28 15.6,18 L15.6,22.8 C15.6,23.52 15.12,24 14.4,24 L9.6,24 C8.88,24 8.4,23.52 8.4,22.8 L8.4,22.8 Z" id="Shape" fill="#FFFFFF"></path>
                        <path d="M16.8,22.8 L16.8,18 C16.8,17.28 17.28,16.8 18,16.8 L22.8,16.8 C23.52,16.8 24,17.28 24,18 L24,22.8 C24,23.52 23.52,24 22.8,24 L18,24 C17.28,24 16.8,23.52 16.8,22.8 L16.8,22.8 Z" id="Shape" fill="#FFFFFF"></path>
                    </g>
                </g>
                <g id="money_box" transform="translate(40.000000, 42.000000)">
                    <g id="Layer_1">
                        <path d="M22.7571429,12.8571429 C22.1142857,12.8571429 21.7285714,12.0857143 21.4714286,11.7 C20.9571429,10.8 20.3142857,9.38571429 19.0285714,8.61428571 C18.5142857,9.38571429 18.3857143,9.77142857 18.1285714,11.0571429 C17.3571429,7.07142857 18.7714286,4.37142857 19.2857143,3.08571429 C17.3571429,3.08571429 15.4285714,4.62857143 14.6571429,6.68571429 C14.4,6.55714286 13.2428571,6.42857143 12.9857143,6.42857143 L9.25714286,6.42857143 C5.14285714,6.42857143 0.9,9.77142857 0.9,15.0428571 C0.9,17.2285714 1.92857143,19.2857143 3.72857143,20.8285714 C3.98571429,21.0857143 4.5,21.6 4.37142857,22.5 L4.37142857,22.7571429 C4.11428571,23.9142857 4.88571429,25.0714286 6.04285714,25.3285714 L8.61428571,25.8428571 C8.61428571,25.8428571 8.74285714,25.2 8.87142857,24.4285714 C9,23.6571429 9.64285714,23.5285714 10.2857143,23.6571429 C10.6714286,23.6571429 11.1857143,23.7857143 11.7,23.7857143 C12.2142857,23.7857143 12.8571429,23.7857143 13.3714286,23.6571429 C13.6285714,23.6571429 14.2714286,23.6571429 14.4,24.3 C14.5285714,24.9428571 14.7857143,25.9714286 14.7857143,25.9714286 L17.3571429,25.4571429 C18.5142857,25.2 19.2857143,24.0428571 19.0285714,22.8857143 L19.0285714,22.6285714 C18.9,22.1142857 19.2857143,21.6 19.5428571,21.4714286 C20.1857143,20.8285714 20.8285714,20.1857143 21.0857143,19.5428571 C21.2142857,19.1571429 21.8571429,18.5142857 22.7571429,18.5142857 L23.1428571,18.5142857 C23.9142857,18.5142857 24.4285714,18 24.4285714,17.2285714 L24.4285714,14.1428571 C24.4285714,13.3714286 23.9142857,13.1142857 23.1428571,13.1142857 C23.0142857,12.8571429 22.7571429,12.8571429 22.7571429,12.8571429 L22.7571429,12.8571429 Z M19.2857143,15.4285714 C18.5142857,15.4285714 18,14.9142857 18,14.1428571 C18,13.3714286 18.5142857,12.8571429 19.2857143,12.8571429 C20.0571429,12.8571429 20.5714286,13.3714286 20.5714286,14.1428571 C20.5714286,14.9142857 20.0571429,15.4285714 19.2857143,15.4285714 L19.2857143,15.4285714 Z" id="Shape" fill="#FFFFFF"></path>
                        <path d="M3.85714286,15.4285714 C2.57142857,15.4285714 0,15.0428571 0,11.5714286" id="Shape" stroke="#FFFFFF" stroke-width="2"></path>
                        <path d="M12.2142857,5.14285714 C12.6,4.62857143 12.8571429,3.98571429 12.8571429,3.21428571 C12.8571429,1.41428571 11.4428571,0 9.64285714,0 C7.84285714,0 6.42857143,1.41428571 6.42857143,3.21428571 C6.42857143,3.98571429 6.68571429,4.62857143 7.07142857,5.14285714 L12.2142857,5.14285714 L12.2142857,5.14285714 Z" id="Shape" fill="#FFFFFF"></path>
                    </g>
                </g>
            </g>
        </g>
    </g>
</svg>