<?xml version="1.0" encoding="utf-8"?>
<!-- Generator: Adobe Illustrator 16.0.4, SVG Export Plug-In . SVG Version: 6.00 Build 0)  -->
<!DOCTYPE svg PUBLIC "-//W3C//DTD SVG 1.1//EN" "http://www.w3.org/Graphics/SVG/1.1/DTD/svg11.dtd">
<svg version="1.1" id="Layer_1" xmlns:sketch="http://www.bohemiancoding.com/sketch/ns"
	 xmlns="http://www.w3.org/2000/svg" xmlns:xlink="http://www.w3.org/1999/xlink" x="0px" y="0px" width="124.799px"
	 height="45.236px" viewBox="12.422 8.327 124.799 45.236" enable-background="new 12.422 8.327 124.799 45.236"
	 xml:space="preserve">
<title>Logotype-green</title>
<desc>Created with Sketch.</desc>
<g id="Page-1_1_" sketch:type="MSPage">
	<g id="Logotype-green" sketch:type="MSArtboardGroup">
		<g id="Logotype:-green" sketch:type="MSLayerGroup">
			<g id="Page-1" sketch:type="MSShapeGroup">
				<path id="Fill-2" d="M123.861,31.37C123.861,31.37,123.861,31.369,123.861,31.37L123.861,31.37L123.861,31.37 M136.841,26.73
					c-0.073-0.077-0.158-0.159-0.263-0.189c-0.029-0.008-0.062-0.014-0.078,0.007c-0.018,0.022-0.008,0.072-0.008,0.097
					c0.01,0.213-0.025,0.415-0.115,0.609c-0.209,0.448-0.595,0.681-1.055,0.815c-0.688,0.202-1.385,0.224-2.098,0.198
					c-0.202-0.007-0.406-0.02-0.609-0.034c-0.07-0.007-0.064-0.066-0.064-0.067c0.059-4.734-2.601-8.499-3.645-9.792
					c-0.068-0.086-0.143-0.167-0.209-0.254c-0.045-0.059-0.097-0.153-0.183-0.148c-0.073,0.004-0.104,0.077-0.134,0.133
					c-0.043,0.087-0.088,0.172-0.133,0.258c-0.949,1.834-3.705,6.926-5.495,7.571c-2.242,0.808-2.709-1.181-2.709-1.181
					s-0.003-0.003-0.005-0.006c-0.71-2.562-2.459-4.526-4.805-4.406c-1.725,0.086-3.023,0.826-4.062,2.01
					c-0.001,0.001-0.001,0-0.003,0.001c-0.041,0.047-0.048-0.029-0.048-0.029c0.006-2.222-0.957-3.343-3.359-3.29
					c-2.673,0.06-5.17,2.306-6.306,3.493c-0.001,0-0.001,0-0.002,0c-0.04,0.042-0.07,0.015-0.07,0.015v0
					c-0.242-0.213-0.502-0.399-0.779-0.584c-1.127-0.752-2.416-0.979-3.592-0.46c-0.46,0.189-0.935,0.501-1.355,1.017
					c-0.002,0.001-0.003,0-0.003,0.001c-0.03,0.035-0.065,0.028-0.077,0.023c-0.224-0.088-1.393-0.441-2.91,1.073
					c-0.428,0.427-0.803,0.914-1.131,1.422c-0.498,0.774-0.904,1.653-1.178,2.627c-0.688,2.451-0.754,4.892-0.186,6.849
					c0,0.005,0,0.007,0.001,0.013c0.019,0.064-0.003,0.1-0.02,0.119c-9.509,7.648,1.96-11.706-2.862-12.683
					c-3.02-0.612-5.396,1.227-6.918,2.994v-0.001c0,0-0.076,0.045-0.045-0.052c2.02-6.213,3.948-12.14,4.454-13.695
					c0,0,0.069-0.232,0.07-0.233c0.024-0.067-0.001-0.159-0.118-0.153c-3.405,0.174-4.58,1.113-5.029,2.529
					c-1.549,4.9-4.979,15.795-7.062,22.415c0,0-0.053,0.13-0.118,0.188c-0.119,0.103-0.216,0.171-0.275,0.208
					c-5.524,3.347-3.991-1.152-2.071-9.117c1.114-4.623,5.035-15.766,5.835-18.023l0.072-0.239c0.021-0.066-0.003-0.159-0.114-0.153
					c-3.044,0.155-4.937,1.21-5.378,2.546c-2.186,6.605-5.123,15.377-6.435,20.49c-0.291,1.132-0.711,3.301-0.31,5.141
					c0,0.001,0,0.001,0,0.001c0.008,0.038-0.016,0.062-0.026,0.069c-6.824,3.479-4.972-3.361-3.184-9.344
					c1.362-4.558,5.088-15.757,5.843-18.022l0.075-0.241c0.021-0.067-0.002-0.159-0.116-0.153c-2.754,0.14-4.9,1.064-5.39,2.547
					c-2.186,6.604-5.12,15.376-6.432,20.489c-0.278,1.083-0.672,3.11-0.356,4.896c0,0.005-0.001,0.005-0.001,0.011
					c0.011,0.059,0.002,0.089-0.005,0.104c-0.592,0.81-1.788,1.809-4.116,1.928c-1.736,0.088-2.549-1.066-2.914-2.396
					c-0.008-0.034-0.254-1.102-0.272-2.634c-0.016-1.464,0.197-2.903,0.635-4.295c0.348-1.109,0.803-2.338,1.699-3.131
					c0.387-0.342,0.972-0.543,1.494-0.427c0.651,0.146,0.967,0.675,0.958,1.364c-0.017,1.417-1.124,2.708-2.228,3.47
					c-0.409,0.282-0.842,0.477-1.282,0.699c-0.919,0.462-0.803,2.546-0.802,2.573c3.904-1.019,5.852-3.996,6.211-6.534
					c0.137-0.97,0.107-2.154-0.456-2.996c-0.334-0.5-0.835-0.882-1.432-1.004c-4.257-0.869-6.63,2.945-7.744,5.606
					c-0.391,0.932-0.695,1.868-0.884,2.844c-0.02,0.1-0.045,0.098-0.075,0.095c-0.651-0.065-1.221-0.194-1.71-0.335
					c-0.022-0.01-0.062-0.033-0.074-0.095c-0.001-0.007-0.002-0.011-0.005-0.016c-0.572-3.221-2.556-5.451-6.034-7.014
					c1.081-0.6,2.147-1.498,2.9-2.722c0.834-1.297,1.202-2.906,1.101-4.438c-0.107-1.623-0.742-3.14-1.654-4.437
					c-0.915-1.3-2.119-2.407-3.519-3.243c-1.395-0.841-2.995-1.412-4.654-1.615c-1.579-0.194-3.249-0.033-4.768,0.438
					c-1.483,0.46-2.844,1.2-3.879,2.178c-1.044,0.966-1.764,2.135-2.118,3.274c-0.36,1.137-0.402,2.236-0.288,3.134
					c0.095,0.948,0.459,1.717,0.898,2.277c0.444,0.561,0.982,0.887,1.38,0.993c0.187,0.049,0.413,0.08,0.612,0.056
					c0.065-0.008,0.109-0.049,0.062-0.117c-0.098-0.137-0.183-0.276-0.248-0.431c-0.119-0.277-0.221-0.662-0.282-1.156
					c-0.066-0.489-0.111-1.094-0.106-1.754c-0.001-0.705,0.138-1.454,0.477-2.194c0.343-0.732,0.876-1.45,1.639-2.019
					c0.753-0.573,1.702-1.02,2.764-1.257c1.083-0.243,2.222-0.308,3.321-0.132c1.092,0.175,2.174,0.599,3.121,1.221
					c0.923,0.595,1.746,1.395,2.35,2.303c0.238,0.358,0.446,0.756,0.608,1.154c0.542,1.331,0.38,2.725-0.302,3.973
					c-0.789,1.443-2.024,2.581-3.463,3.359c-0.831,0.449-1.724,0.789-2.648,1.024c-0.075,0.019-0.151,0.035-0.227,0.052
					c-0.083,0.018-0.05-0.069-0.049-0.072c1.518-4.662,2.829-8.68,3.207-9.836c0,0,0.05-0.153,0.061-0.206
					c0.012-0.063-0.024-0.123-0.116-0.119c-3.249,0.205-4.761,1.497-5.089,2.53c-1.993,6.266-7.372,23.493-8.294,26.447
					l-0.071,0.273c-0.017,0.067,0.003,0.16,0.09,0.152c3.123-0.197,4.423-1.36,4.792-2.517c0.024-0.075,0.05-0.155,0.076-0.235
					c0,0,0.021-0.066,0.07-0.004c0.001,0.002,0.003,0.002,0.006,0.004c1.492,1.932,4.114,3.418,8.185,3.207
					c4.675-0.242,9.548-3.268,10.154-8.557c0.054-0.472,0.087-0.926,0.103-1.367l0.001,0.002c0,0-0.002-0.088,0.055-0.074
					c0.398,0.09,0.854,0.161,1.379,0.205c0.018,0.002,0.062,0.032,0.065,0.096c0.031,0.714,0.141,1.42,0.352,2.115
					c0.101,0.331,0.223,0.656,0.37,0.969c0.816,1.745,2.493,3.33,5.917,3.154c2.211-0.113,3.976-1.111,5.154-2.354
					c0,0,0.042-0.038,0.094,0.051c0.004,0.006,0.007,0.008,0.011,0.012c0.66,1.145,1.887,1.926,4.056,1.815
					c2.46-0.126,4.457-1.136,5.669-1.933c0.013-0.008,0.04-0.015,0.07,0.025c0.004,0.005,0.008,0.007,0.012,0.009
					c0.706,0.921,1.884,1.512,3.788,1.415c1.126-0.059,2.23-0.599,3.202-1.292c0,0,0.12-0.077,0.083,0.04
					c-0.378,1.203-0.641,2.037-0.736,2.34C70.94,41.184,71,41.25,71.073,41.246c3.23-0.205,4.424-1.473,4.763-2.515
					c0.7-2.155,1.727-5.334,2.839-8.739c0.271-0.829,1.015-2.363,2.298-3.365c1.186-0.875,1.85-1.08,2.217-1.06
					c0.176,0.009,0.399,0.11,0.407,0.3c0.004,0.091-0.04,0.196-0.069,0.282c-2.824,8.348-2.535,13.202,2.177,12.961
					c1.851-0.096,3.99-2.212,4.938-3.258c0.016-0.014,0.041-0.031,0.063,0.01c0.001,0.004,0.003,0.004,0.005,0.005
					c0.598,1.146,1.488,2.015,2.68,2.457c3.379,1.255,7.496-1.521,9.203-6.117c0.768-2.068,0.914-4.165,0.539-5.961
					c-0.045-0.228-0.092-0.438-0.141-0.64c-0.201-0.757-1.251-0.175-2.096,0.399c-0.852,0.579-1.574,0.859-1.576,0.859
					c0.051,1.067-0.066,2.327-0.374,3.646c-0.792,3.396-2.541,5.89-3.905,5.572c-1.363-0.318-1.826-3.329-1.033-6.725
					c0.27-1.153,0.649-2.2,1.086-3.07c0.006-0.009,0.039-0.036,0.065,0.006c0.069,0.108,0.144,0.214,0.232,0.31
					c0.937,1.03,2.513,0.77,3.905-0.12c0.417-0.261,1.469-0.958,3.214-2.366c5.058-4.465,4.87-2.092,3.985,1.383l-4.48,14.206
					c-0.023,0.08-0.069,0.073-0.069,0.073l-0.001,0.021c-2.353,0.032-4.702,0.135-7.055,0.297c-2.645,0.176-5.283,0.451-7.916,0.758
					c-2.414,0.281-4.825,0.592-7.231,0.932c-4.083,0.578-8.159,1.219-12.23,1.877c-4.547,0.736-9.103,1.428-13.646,2.188
					c-2.388,0.4-4.792,0.713-7.194,1.019c-2.753,0.349-5.515,0.647-8.285,0.831c-2.677,0.178-5.379,0.26-8.05,0.223
					c-3.12-0.045-6.268-0.243-9.315-0.951c-2.149-0.5-3.884-1.245-5.143-2.114c-1.266-0.861-2.038-1.848-2.458-2.591
					c-0.222-0.393-0.37-0.79-0.526-1.209c-0.032-0.086-0.107-0.159-0.204-0.137c-0.086,0.021-0.135,0.101-0.159,0.18
					c-0.048,0.162-0.068,0.334-0.086,0.501c-0.032,0.307-0.032,0.617-0.008,0.925c0.105,1.456,0.748,2.832,1.611,3.99
					c1.148,1.545,3.058,3.054,5.472,4.179c2.412,1.142,5.3,1.935,8.446,2.392c1.573,0.225,3.215,0.369,4.905,0.438
					c2.525,0.086,5.053,0.007,7.573-0.146c2.897-0.177,5.788-0.474,8.667-0.837c1.05-0.132,2.101-0.272,3.149-0.42
					c3.594-0.506,7.175-1.094,10.75-1.72c3.141-0.551,6.278-1.125,9.412-1.718c3.922-0.74,7.836-1.454,11.68-2.136
					c3.75-0.665,7.504-1.274,11.285-1.733c3.517-0.429,7.033-0.717,10.574-0.846c3.355-0.121,6.567-0.111,9.492,0.041
					c2.928,0.158,5.594,0.449,7.912,0.851c1.994,0.346,3.984,0.704,5.941,1.227c1.251,0.335,2.502,0.71,3.684,1.243
					c0.342,0.154,0.681,0.33,1.001,0.516c0.146,0.086,0.403,0.309,0.565,0.145c0.091-0.09,0.042-0.193-0.01-0.291
					c-0.051-0.094-0.109-0.184-0.168-0.273c-0.104-0.152-0.218-0.299-0.338-0.439c-0.262-0.312-0.549-0.602-0.854-0.874
					c-0.896-0.807-1.93-1.466-2.996-2.022c-1.927-1.008-4.004-1.754-6.119-2.258c-2.441-0.605-5.232-1.051-8.281-1.4
					c-2.96-0.326-6.145-0.525-9.543-0.608c-0.002-0.001,0-0.001-0.002-0.001c-0.061-0.002-0.043-0.07-0.042-0.074
					c0.205-0.631,0.41-1.26,0.614-1.891c0.474-1.453,0.947-2.906,1.42-4.359c0.53-1.627,1.07-3.252,1.59-4.882
					c0.12-0.369,0.223-0.752,0.364-1.112c1.178-3.011,2.948-5.516,4.212-5.184c1.305,0.343,1.988,3.018,0.633,6.712
					c-1.354,3.696-2.812,4.743-4.116,4.399c-0.286-0.075-0.55-0.238-0.749-0.456c-0.141-0.153-0.26-0.335-0.345-0.524
					c-0.032-0.073-0.074-0.172-0.169-0.166c-0.129,0.006-0.161,0.186-0.189,0.281c-0.684,2.308,0.408,4.639,2.443,5.085
					c2.562,0.561,6.411-2.096,8.077-7.571c0.255-0.841,0.384-1.717,0.397-2.584c0,0,0.012-0.063,0.059-0.032
					c0.001,0.001,0.002,0,0.004,0.001c3.745,2.548,6.943-3.678,7.434-4.558c0.046-0.082,0.094-0.075,0.15-0.009
					c0.23,0.263,0.799,1.172,0.87,3.776c0.01,0.371,0.005,0.761-0.009,1.156c-0.004,0.058-0.051,0.056-0.051,0.056
					c-1.225-0.098-2.453-0.125-3.652,0.122c-0.762,0.158-1.549,0.451-2.23,0.938c-1.105,0.792-2.043,2.203-2.018,3.607
					c0.021,1.146,0.45,2.188,1.268,2.99c0.007,0.008,0.014,0.014,0.02,0.02c2.193,2.128,6.958,2.598,9.215-2.443
					c0.273-0.613,0.485-1.219,0.652-1.817c0.117-0.752-1.326-0.917-2.091-0.936c-0.474-0.011-0.913-0.029-1.422-0.01
					c-0.431,1.815-1.36,3.366-3.221,3.702c-0.726,0.131-1.85-0.371-1.938-1.182c-0.057-0.524,0.107-1.097,0.434-1.512
					c0.002-0.003,0.004-0.006,0.007-0.009c0.004-0.005-0.002,0.002-0.007,0.008c0.863-1.094,2.312-1.316,3.618-1.386
					c0.599-0.032,1.197-0.023,1.796-0.018c1.031,0.009,2.062,0.03,3.094,0.001c1.156-0.032,2.396-0.021,3.467-0.527
					c0.277-0.131,0.554-0.313,0.779-0.523c0.373-0.347,0.641-0.846,0.602-1.367C137.192,27.225,137.064,26.961,136.841,26.73
					 M36.45,33.202c-0.066,3.579-2.496,8.025-7.806,7.904c-2.166-0.05-3.888-0.741-5.067-1.793c-0.009-0.012-0.04-0.057-0.02-0.118
					l0,0c1.143-3.546,2.871-8.864,4.431-13.657c0.02-0.059,0.063-0.041,0.063-0.041v-0.001c0.43,0.16,0.874,0.277,1.326,0.362
					c0.671,0.128,1.525,0.199,2.518,0.084c0.082-0.01,0.166-0.023,0.25-0.035l0.001,0.002c0,0,0.157-0.029,0.384,0.1
					C34.447,27.085,36.524,29.181,36.45,33.202 M98.967,24.553c-0.711,0.851-1.723,1.445-2.525,1.462
					c-0.814,0.016-0.897-0.676-0.184-1.547c0.703-0.86,2.449-1.285,2.728-0.002C98.985,24.489,98.982,24.531,98.967,24.553
					 M102.07,44.729c-0.916,0.063-1.122,0.103-1.701,0.203l-2.144,6.81c0.003,0.065,0.048,0.122,0.11,0.127
					c3.145-0.192,4.348-1.238,4.756-2.514c0.324-1.008,0.65-2.015,0.977-3.021c0.077-0.238,0.156-0.484,0.234-0.723
					C104.613,44.623,102.604,44.692,102.07,44.729"/>
			</g>
		</g>
	</g>
</g>
</svg>
