<?xml version="1.0" encoding="utf-8"?>
<!-- Generator: Adobe Illustrator 16.0.4, SVG Export Plug-In . SVG Version: 6.00 Build 0)  -->
<!DOCTYPE svg PUBLIC "-//W3C//DTD SVG 1.1//EN" "http://www.w3.org/Graphics/SVG/1.1/DTD/svg11.dtd">
<svg version="1.1" id="Layer_1" xmlns="http://www.w3.org/2000/svg" xmlns:xlink="http://www.w3.org/1999/xlink" x="0px" y="0px"
	 width="350px" height="350px" viewBox="0 0 350 350" enable-background="new 0 0 350 350" xml:space="preserve">
<g>
	<g>
		<circle fill="#48B7AB" cx="175.609" cy="148.226" r="22.774"/>
	</g>
	<path fill="#48B7AB" d="M150.117,198.268c0.571-1.257,2.051-1.813,3.31-1.243c1.257,0.57,1.814,2.052,1.243,3.31
		c-1.743,3.841-1.735,8.305-1.032,12.416h42.532c0.706-4.117,0.717-8.584-1.022-12.416c-0.57-1.258-0.014-2.739,1.243-3.31
		c1.259-0.572,2.74-0.013,3.31,1.243c2.097,4.619,2.226,9.77,1.531,14.482h12.192c0-23.058-17.067-41.75-38.12-41.75
		c-21.053,0-38.12,18.692-38.12,41.75h11.403C147.892,208.037,148.021,202.887,150.117,198.268z"/>
</g>
<g>
	<g>
		<circle fill="#CADD59" cx="257.268" cy="77.133" r="11.76"/>
	</g>
	<path fill="#CADD59" d="M244.104,102.974c0.295-0.649,1.06-0.937,1.709-0.642c0.649,0.294,0.938,1.06,0.643,1.709
		c-0.9,1.983-0.896,4.289-0.533,6.412h21.963c0.365-2.126,0.37-4.433-0.527-6.412c-0.295-0.65-0.008-1.415,0.642-1.709
		c0.65-0.296,1.415-0.006,1.709,0.642c1.083,2.385,1.149,5.045,0.791,7.479h6.296c0-11.908-8.813-21.56-19.686-21.56
		c-10.871,0-19.685,9.652-19.685,21.56h5.889C242.954,108.019,243.021,105.359,244.104,102.974z"/>
</g>
<g>
	<g>
		<circle fill="#CADD59" cx="233.267" cy="17.026" r="11.76"/>
	</g>
	<path fill="#CADD59" d="M220.103,42.867c0.295-0.649,1.06-0.937,1.709-0.642c0.649,0.294,0.938,1.06,0.643,1.709
		c-0.9,1.983-0.896,4.289-0.533,6.412h21.963c0.365-2.126,0.37-4.433-0.527-6.412c-0.295-0.65-0.008-1.415,0.642-1.709
		c0.65-0.296,1.415-0.006,1.709,0.642c1.083,2.385,1.149,5.045,0.791,7.479h6.296c0-11.908-8.813-21.56-19.686-21.56
		c-10.871,0-19.685,9.652-19.685,21.56h5.889C218.953,47.912,219.02,45.252,220.103,42.867z"/>
</g>
<g>
	<g>
		<circle fill="#CADD59" cx="133.8" cy="58.923" r="11.76"/>
	</g>
	<path fill="#CADD59" d="M120.636,84.764c0.295-0.649,1.06-0.937,1.709-0.642c0.649,0.294,0.938,1.06,0.643,1.709
		c-0.9,1.983-0.896,4.289-0.533,6.412h21.963c0.365-2.126,0.37-4.433-0.527-6.412c-0.295-0.65-0.008-1.415,0.642-1.709
		c0.65-0.296,1.415-0.006,1.709,0.642c1.083,2.385,1.149,5.045,0.791,7.479h6.296c0-11.908-8.813-21.56-19.686-21.56
		c-10.871,0-19.685,9.652-19.685,21.56h5.889C119.486,89.809,119.553,87.149,120.636,84.764z"/>
</g>
<g>
	<g>
		<circle fill="#CADD59" cx="51.459" cy="75.462" r="11.76"/>
	</g>
	<path fill="#CADD59" d="M38.295,101.303c0.295-0.649,1.06-0.937,1.709-0.642c0.649,0.294,0.938,1.06,0.643,1.709
		c-0.9,1.983-0.896,4.289-0.533,6.412h21.963c0.365-2.126,0.37-4.433-0.527-6.412c-0.295-0.65-0.008-1.415,0.642-1.709
		c0.65-0.296,1.415-0.006,1.709,0.642c1.083,2.385,1.149,5.045,0.791,7.479h6.296c0-11.908-8.813-21.56-19.686-21.56
		c-10.871,0-19.685,9.652-19.685,21.56h5.889C37.146,106.348,37.212,103.688,38.295,101.303z"/>
</g>
<g>
	<g>
		<circle fill="#CADD59" cx="27.935" cy="150.87" r="11.76"/>
	</g>
	<path fill="#CADD59" d="M14.771,176.711c0.295-0.649,1.06-0.938,1.709-0.643s0.938,1.061,0.643,1.71
		c-0.9,1.983-0.896,4.288-0.533,6.411h21.963c0.365-2.125,0.37-4.433-0.527-6.411c-0.295-0.649-0.008-1.415,0.642-1.71
		c0.65-0.295,1.415-0.006,1.709,0.643c1.083,2.385,1.149,5.045,0.791,7.479h6.296c0-11.907-8.813-21.559-19.686-21.559
		c-10.871,0-19.685,9.652-19.685,21.559h5.889C13.621,181.756,13.688,179.096,14.771,176.711z"/>
</g>
<g>
	<g>
		<circle fill="#CADD59" cx="64.355" cy="197.985" r="11.761"/>
	</g>
	<path fill="#CADD59" d="M51.191,223.826c0.295-0.649,1.06-0.938,1.709-0.643s0.938,1.061,0.643,1.71
		c-0.9,1.983-0.896,4.288-0.533,6.411h21.963c0.365-2.125,0.37-4.433-0.527-6.411c-0.295-0.649-0.008-1.415,0.642-1.71
		c0.65-0.295,1.415-0.006,1.709,0.643c1.083,2.385,1.149,5.045,0.791,7.479h6.296c0-11.907-8.813-21.559-19.686-21.559
		c-10.871,0-19.685,9.651-19.685,21.559h5.889C50.042,228.871,50.108,226.211,51.191,223.826z"/>
</g>
<g>
	<g>
		<circle fill="#CADD59" cx="59.538" cy="272.301" r="11.761"/>
	</g>
	<path fill="#CADD59" d="M46.374,298.142c0.295-0.649,1.06-0.938,1.709-0.643s0.938,1.061,0.643,1.71
		c-0.9,1.983-0.896,4.288-0.533,6.411h21.963c0.365-2.125,0.37-4.433-0.527-6.411c-0.295-0.649-0.008-1.415,0.642-1.71
		c0.65-0.295,1.415-0.006,1.709,0.643c1.083,2.385,1.149,5.045,0.791,7.479h6.296c0-11.907-8.813-21.559-19.686-21.559
		c-10.871,0-19.685,9.651-19.685,21.559h5.889C45.225,303.187,45.291,300.526,46.374,298.142z"/>
</g>
<g>
	<g>
		<circle fill="#CADD59" cx="164.355" cy="289.344" r="11.761"/>
	</g>
	<path fill="#CADD59" d="M151.191,315.185c0.295-0.649,1.06-0.938,1.709-0.643s0.938,1.061,0.643,1.71
		c-0.9,1.983-0.896,4.288-0.533,6.411h21.963c0.365-2.125,0.37-4.433-0.527-6.411c-0.295-0.649-0.008-1.415,0.642-1.71
		c0.65-0.295,1.416-0.006,1.708,0.643c1.084,2.385,1.15,5.045,0.791,7.479h6.297c0-11.907-8.814-21.559-19.686-21.559
		c-10.871,0-19.685,9.651-19.685,21.559h5.889C150.042,320.229,150.108,317.569,151.191,315.185z"/>
</g>
<g>
	<g>
		<circle fill="#CADD59" cx="249.848" cy="234.714" r="11.761"/>
	</g>
	<path fill="#CADD59" d="M236.684,260.555c0.295-0.649,1.061-0.938,1.709-0.643c0.65,0.295,0.938,1.061,0.643,1.71
		c-0.9,1.983-0.896,4.288-0.533,6.411h21.963c0.365-2.125,0.371-4.433-0.527-6.411c-0.295-0.649-0.008-1.415,0.643-1.71
		c0.649-0.295,1.415-0.006,1.708,0.643c1.084,2.385,1.15,5.045,0.791,7.479h6.297c0-11.907-8.813-21.559-19.687-21.559
		c-10.871,0-19.684,9.651-19.684,21.559h5.889C235.535,265.6,235.602,262.939,236.684,260.555z"/>
</g>
<g>
	<g>
		<circle fill="#CADD59" cx="322.38" cy="150.87" r="11.761"/>
	</g>
	<path fill="#CADD59" d="M309.216,176.711c0.295-0.649,1.061-0.938,1.709-0.643c0.65,0.295,0.938,1.061,0.643,1.71
		c-0.9,1.983-0.896,4.288-0.533,6.411h21.963c0.365-2.125,0.371-4.433-0.527-6.411c-0.295-0.649-0.008-1.415,0.643-1.71
		c0.649-0.295,1.415-0.006,1.708,0.643c1.084,2.385,1.15,5.045,0.791,7.479h6.297c0-11.907-8.813-21.559-19.687-21.559
		c-10.871,0-19.684,9.651-19.684,21.559h5.889C308.067,181.756,308.134,179.096,309.216,176.711z"/>
</g>
</svg>
