<?xml version="1.0" encoding="utf-8"?>
<!-- Generator: Adobe Illustrator 16.0.4, SVG Export Plug-In . SVG Version: 6.00 Build 0)  -->
<!DOCTYPE svg PUBLIC "-//W3C//DTD SVG 1.1//EN" "http://www.w3.org/Graphics/SVG/1.1/DTD/svg11.dtd">
<svg version="1.1" id="Layer_1" xmlns="http://www.w3.org/2000/svg" xmlns:xlink="http://www.w3.org/1999/xlink" x="0px" y="0px"
	 width="453.883px" height="388.35px" viewBox="-2.723 -20.874 453.883 388.35"
	 enable-background="new -2.723 -20.874 453.883 388.35" xml:space="preserve">
<path fill="#EEEEEE" d="M451.16,363.476c0,2.209-1.791,4-4,4H1.277c-2.209,0-4-1.791-4-4v-380.35c0-2.209,1.791-4,4-4H447.16
	c2.209,0,4,1.791,4,4V363.476z"/>
<rect y="0" fill="#FFFFFF" width="448.438" height="364.762"/>
<circle fill="#D8D8D8" cx="11.354" cy="-11.057" r="3.717"/>
<circle fill="#D8D8D8" cx="25.881" cy="-11.057" r="3.717"/>
<circle fill="#D8D8D8" cx="40.408" cy="-11.057" r="3.717"/>
<g>
	<rect x="54.358" y="-11.977" fill="#D3D3D3" width="9.957" height="1.84"/>
	<polygon fill="#D3D3D3" points="57.51,-6.603 53.057,-11.057 57.511,-15.51 58.812,-14.209 55.66,-11.057 58.811,-7.905 	"/>
</g>
<g>
	<rect x="70.396" y="-11.977" fill="#D3D3D3" width="9.957" height="1.84"/>
	<polygon fill="#D3D3D3" points="77.201,-6.603 75.899,-7.905 79.051,-11.057 75.899,-14.209 77.201,-15.51 81.654,-11.057 	"/>
</g>
<path fill="#FFFFFF" d="M441.892-7.579c0,1.016-0.824,1.84-1.84,1.84H90.942c-1.016,0-1.84-0.824-1.84-1.84v-6.956
	c0-1.016,0.825-1.84,1.84-1.84h349.11c1.016,0,1.84,0.824,1.84,1.84V-7.579z"/>
<line fill="none" stroke="#F5F5F5" stroke-miterlimit="10" x1="27.466" y1="0" x2="27.466" y2="367.476"/>
<line fill="none" stroke="#F5F5F5" stroke-miterlimit="10" x1="57.002" y1="0" x2="57.002" y2="367.476"/>
<line fill="none" stroke="#F5F5F5" stroke-miterlimit="10" x1="86.538" y1="0" x2="86.538" y2="367.476"/>
<line fill="none" stroke="#F5F5F5" stroke-miterlimit="10" x1="116.074" y1="0" x2="116.074" y2="367.476"/>
<line fill="none" stroke="#F5F5F5" stroke-miterlimit="10" x1="145.61" y1="0" x2="145.61" y2="367.476"/>
<line fill="none" stroke="#F5F5F5" stroke-miterlimit="10" x1="175.146" y1="0" x2="175.146" y2="367.476"/>
<line fill="none" stroke="#F5F5F5" stroke-miterlimit="10" x1="204.683" y1="0" x2="204.683" y2="367.476"/>
<line fill="none" stroke="#F5F5F5" stroke-miterlimit="10" x1="234.219" y1="0" x2="234.219" y2="367.476"/>
<line fill="none" stroke="#F5F5F5" stroke-miterlimit="10" x1="263.755" y1="0" x2="263.755" y2="367.476"/>
<line fill="none" stroke="#F5F5F5" stroke-miterlimit="10" x1="293.291" y1="0" x2="293.291" y2="367.476"/>
<line fill="none" stroke="#F5F5F5" stroke-miterlimit="10" x1="322.827" y1="0" x2="322.827" y2="367.476"/>
<line fill="none" stroke="#F5F5F5" stroke-miterlimit="10" x1="352.363" y1="0" x2="352.363" y2="367.476"/>
<line fill="none" stroke="#F5F5F5" stroke-miterlimit="10" x1="381.899" y1="0" x2="381.899" y2="367.476"/>
<line fill="none" stroke="#F5F5F5" stroke-miterlimit="10" x1="411.436" y1="0" x2="411.436" y2="367.476"/>
<line fill="none" stroke="#F5F5F5" stroke-miterlimit="10" x1="440.972" y1="0" x2="440.972" y2="367.476"/>
</svg>
