<?xml version="1.0" encoding="utf-8"?>
<!-- Generator: Adobe Illustrator 16.0.4, SVG Export Plug-In . SVG Version: 6.00 Build 0)  -->
<!DOCTYPE svg PUBLIC "-//W3C//DTD SVG 1.1//EN" "http://www.w3.org/Graphics/SVG/1.1/DTD/svg11.dtd">
<svg version="1.1" id="Layer_1" xmlns="http://www.w3.org/2000/svg" xmlns:xlink="http://www.w3.org/1999/xlink" x="0px" y="0px"
	 width="246.776px" height="399.35px" viewBox="-1.723 -20.874 246.776 399.35"
	 enable-background="new -1.723 -20.874 246.776 399.35" xml:space="preserve">
<g>
	<path fill="#EEEEEE" d="M245.053,368.476c0,5.522-4.478,10-10,10H8.277c-5.522,0-10-4.478-10-10v-379.35c0-5.523,4.478-10,10-10
		h226.776c5.522,0,10,4.477,10,10V368.476L245.053,368.476z"/>
	<g>
		<rect x="1" y="19.881" fill="#FFFFFF" width="241.33" height="355.881"/>
	</g>
	<path fill="#E0E0E0" d="M168.886,1.483c0,1.104-0.896,2-2,2H97.401c-1.104,0-2-0.896-2-2l0,0c0-1.104,0.896-2,2-2h69.484
		C167.99-0.517,168.886,0.378,168.886,1.483L168.886,1.483z"/>
	<circle fill="#E0E0E0" cx="79.812" cy="1.482" r="2.482"/>
	<path fill="#F2F2F2" d="M179.219,31.381h-158.5c-5.523,0-10,4.477-10,10v30.5c0,5.522,4.477,10,10,10h4v13.435l13.435-13.435
		h141.065c5.523,0,10-4.478,10-10v-30.5C189.219,35.858,184.742,31.381,179.219,31.381z"/>
	<path fill="#F2F2F2" d="M179.219,98.881h-158.5c-5.523,0-10,4.477-10,10v10.498c0,5.522,4.477,10,10,10h4v13.435l13.435-13.435
		h141.065c5.523,0,10-4.478,10-10v-10.498C189.219,103.358,184.742,98.881,179.219,98.881z"/>
	<path fill="#F2F2F2" d="M179.219,272.881h-158.5c-5.523,0-10,4.477-10,10v10.498c0,5.521,4.477,10,10,10h4v13.435l13.435-13.435
		h141.065c5.523,0,10-4.479,10-10v-10.498C189.219,277.358,184.742,272.881,179.219,272.881z"/>
	<path fill="#F2F2F2" d="M64.719,142.319h158.5c5.523,0,10,4.479,10,10v30.5c0,5.522-4.477,10-10,10h-4v13.436l-13.435-13.436
		H64.719c-5.523,0-10-4.478-10-10v-30.5C54.719,146.797,59.196,142.319,64.719,142.319z"/>
	<path fill="#F2F2F2" d="M64.719,212.319h158.5c5.523,0,10,4.479,10,10v30.5c0,5.523-4.477,10-10,10h-4v13.437l-13.435-13.437
		H64.719c-5.523,0-10-4.477-10-10v-30.5C54.719,216.797,59.196,212.319,64.719,212.319z"/>
</g>
</svg>
